<?xml version="1.0" standalone="no"?>
<!DOCTYPE svg PUBLIC "-//W3C//DTD SVG 20010904//EN"
 "http://www.w3.org/TR/2001/REC-SVG-20010904/DTD/svg10.dtd">
<svg version="1.0" xmlns="http://www.w3.org/2000/svg"
 width="511.000000pt" height="511.000000pt" viewBox="0 0 511.000000 511.000000"
 preserveAspectRatio="xMidYMid meet">
<metadata>
Created by potrace 1.14, written by Peter Selinger 2001-2017
</metadata>
<g transform="translate(0.000000,511.000000) scale(0.100000,-0.100000)"
fill="#000000" stroke="none">
<path d="M2417 4818 c11 -12 7 -14 -22 -14 -19 1 -35 5 -35 9 0 5 -5 5 -10 2
-6 -4 -8 -11 -5 -16 4 -5 -1 -9 -10 -9 -9 0 -13 5 -10 10 4 6 -9 10 -32 9 -49
-1 -154 -16 -128 -18 14 -1 16 -4 8 -12 -6 -6 -9 -17 -7 -24 7 -17 -16 -32
-61 -40 -30 -5 -36 -4 -25 4 13 10 13 12 0 22 -12 8 -8 9 17 5 23 -4 37 0 49
12 17 16 15 17 -22 24 -34 6 -43 3 -69 -23 -16 -16 -24 -29 -17 -29 6 0 12 -3
12 -7 0 -5 -108 -8 -240 -8 -132 0 -240 3 -240 8 0 4 -11 7 -25 7 -27 0 -32
-9 -13 -28 9 -9 8 -18 -2 -37 -12 -23 -12 -28 0 -35 8 -6 23 -10 33 -10 19 0
21 -34 8 -127 -4 -29 -4 -53 0 -53 13 0 18 14 23 66 2 27 7 61 11 77 l7 27
198 0 198 0 17 -26 c15 -24 22 -26 60 -21 47 7 61 1 44 -20 -9 -9 -8 -13 0
-13 6 0 11 -10 11 -22 -1 -22 -1 -23 -15 -4 -14 19 -15 19 -15 -6 0 -14 9 -35
20 -48 19 -22 26 -68 21 -145 -1 -17 3 -42 9 -55 10 -23 10 -23 5 8 -6 41 9
72 35 72 14 0 20 -8 22 -37 3 -34 4 -33 8 15 l5 52 -36 0 -36 0 3 82 c5 125
32 114 37 -15 2 -44 5 -57 17 -55 11 3 15 22 18 83 2 44 5 86 7 93 3 6 21 12
41 12 38 0 37 1 17 -47 -5 -13 29 -26 72 -26 l30 0 -27 -10 c-33 -13 -33 -15
-8 -45 18 -22 21 -22 36 -8 8 9 27 16 41 16 22 0 25 -4 21 -25 -3 -14 -1 -28
4 -31 5 -3 7 -12 4 -20 -3 -9 2 -14 14 -14 14 0 20 7 20 24 0 13 -6 27 -12 29
-7 3 -3 6 10 6 l22 1 1 -192 c0 -106 2 -247 2 -313 l2 -120 -43 1 -42 1 3 -57
c3 -32 7 -62 11 -68 3 -6 2 -13 -4 -17 -22 -14 -8 -25 33 -25 31 0 38 -3 27
-10 -12 -8 -10 -10 10 -11 l25 -1 -27 -8 c-34 -10 -77 -2 -56 11 10 7 9 9 -4
9 -12 0 -18 -8 -18 -21 0 -11 5 -17 10 -14 6 3 10 1 10 -4 0 -6 14 -11 31 -11
27 0 30 -2 19 -15 -11 -13 -5 -15 44 -15 36 0 55 4 51 10 -3 6 5 10 19 10 14
0 28 5 31 10 9 14 18 13 41 -6 18 -15 18 -15 -3 -5 -14 7 -24 8 -28 1 -3 -5 5
-12 19 -16 22 -5 23 -8 13 -25 -12 -19 -48 -17 -55 2 -2 5 -13 8 -25 8 -17 -1
-18 -2 -4 -6 9 -2 15 -9 12 -14 -4 -5 0 -9 7 -9 8 0 6 -6 -6 -17 -13 -13 -20
-15 -23 -5 -9 23 -23 12 -23 -17 0 -26 8 -34 60 -62 l60 -32 0 -78 c0 -46 -4
-79 -10 -79 -5 0 -10 -7 -10 -15 0 -21 -107 -20 -134 0 -25 19 -36 19 -36 0 0
-9 -6 -12 -15 -9 -8 4 -15 1 -15 -6 0 -7 8 -10 18 -8 9 3 38 2 62 -2 l45 -7
-50 -3 c-27 -1 -53 -2 -57 -1 -5 0 -8 -8 -8 -19 0 -24 16 -26 36 -5 19 19 74
19 119 1 30 -13 34 -13 41 2 13 31 22 -37 23 -190 1 -88 -3 -149 -9 -153 -5
-3 -10 -15 -10 -26 0 -15 -7 -19 -35 -19 -19 0 -38 -1 -42 -2 -5 -2 -9 9 -11
25 -2 15 -8 27 -13 27 -5 0 -9 14 -9 30 0 17 5 30 10 30 6 0 10 7 10 15 0 8
-6 15 -14 15 -14 0 -26 -29 -26 -67 0 -13 -5 -23 -11 -23 -7 0 -9 9 -5 23 4
12 9 35 13 51 3 16 14 31 25 33 15 4 18 15 17 57 0 28 -3 45 -6 39 -6 -16
-223 -19 -223 -3 0 6 -77 11 -207 12 -115 0 -188 4 -164 7 32 4 46 12 51 26 7
19 7 19 14 -2 7 -23 10 -23 167 -23 146 0 159 1 145 16 -27 27 -18 34 45 34
60 0 61 -1 57 -25 -5 -25 -4 -25 59 -25 35 0 62 4 59 9 -3 4 -16 6 -28 4 -13
-2 -35 2 -49 9 -24 12 -17 14 67 13 52 0 94 -3 94 -7 0 -5 -7 -8 -15 -8 -8 0
-15 -4 -15 -10 0 -5 9 -10 20 -10 16 0 20 7 20 31 0 28 -3 31 -25 27 -14 -3
-29 0 -35 7 -5 6 -28 20 -50 30 -32 15 -42 15 -55 5 -8 -7 -15 -19 -15 -26 0
-12 -46 -14 -257 -15 -260 0 -494 -7 -502 -15 -2 -2 18 -4 46 -4 33 0 50 -4
50 -12 4 -51 23 -992 24 -1157 1 -74 3 -140 6 -147 2 -6 13 -10 23 -7 12 3 20
-2 25 -16 3 -12 13 -21 21 -21 17 0 18 12 2 28 -9 9 -8 12 5 12 16 0 18 -7 17
-57 0 -8 -11 -10 -62 -12 -26 -1 -28 -4 -28 -42 0 -22 -4 -38 -8 -35 -4 2 -33
-1 -63 -9 -37 -9 -45 -13 -26 -14 15 -1 27 -5 27 -10 0 -14 -34 -23 -55 -14
-15 5 -17 3 -12 -11 5 -12 3 -16 -5 -14 -17 6 -22 66 -8 83 21 25 78 30 102 9
20 -19 21 -19 15 1 -4 11 -8 106 -9 211 l-2 191 -45 2 c-50 1 -71 11 -25 11
26 0 29 4 29 30 0 26 -4 30 -28 30 -17 0 -26 4 -22 10 4 6 16 8 27 4 17 -5 20
-3 15 10 -5 12 -1 16 15 16 16 0 18 -3 9 -13 -8 -10 -7 -17 1 -25 8 -8 8 -15
-1 -26 -14 -16 -7 -36 12 -36 8 0 12 23 10 77 -1 43 -2 176 -3 296 -1 131 -6
217 -12 217 -5 0 -6 -9 -3 -20 6 -18 2 -20 -44 -20 l-51 0 4 39 c5 55 11 61
57 61 l39 0 0 51 c0 46 -2 50 -20 44 -17 -6 -20 -2 -20 29 0 41 12 47 28 14 9
-19 11 -13 11 39 l1 62 -32 -10 c-40 -11 -38 -11 -38 1 0 6 9 10 20 10 27 0
25 24 -2 38 -22 11 -22 12 7 9 23 -1 29 -6 27 -21 -2 -10 1 -15 7 -12 6 4 9
25 7 46 -3 23 1 43 7 47 15 10 -64 19 -115 15 -46 -5 -50 -20 -44 -150 3 -53
8 -254 11 -447 2 -192 8 -531 11 -752 5 -298 4 -403 -5 -403 -6 0 -12 1 -12 3
-1 1 -5 84 -8 184 -4 100 -10 185 -13 189 -4 3 -36 9 -71 11 l-65 6 0 34 0 35
42 -5 c22 -4 53 -9 67 -13 l26 -6 -5 194 c-3 106 -5 295 -6 420 -1 206 -3 228
-18 228 -9 0 -18 3 -20 8 -1 4 -25 4 -53 1 -38 -4 -43 -7 -20 -9 17 -2 36 -3
44 -2 38 2 42 -22 40 -215 l-1 -188 -140 -3 c-88 -2 -138 0 -134 6 7 11 101
23 195 26 41 0 66 5 68 14 3 8 -8 12 -34 12 -42 1 -72 18 -66 38 3 6 -3 12
-12 12 -15 0 -16 2 -4 17 8 9 13 19 11 22 -1 3 16 6 38 7 37 2 39 1 29 -17 -7
-14 -16 -18 -31 -13 -17 5 -20 3 -15 -11 4 -9 7 -19 7 -21 0 -3 5 -2 10 1 6 4
17 1 25 -5 30 -25 40 -6 37 64 -3 55 -6 64 -16 51 -8 -12 -20 -14 -38 -10 -21
5 -27 13 -26 33 0 15 -1 34 -3 42 -3 11 7 16 39 18 55 4 55 17 0 17 -33 0 -43
4 -46 18 -3 14 4 17 42 17 25 0 46 4 46 10 0 6 -67 11 -167 13 l-168 3 168 2
c92 1 167 5 167 10 0 4 -55 7 -123 6 -162 -1 -180 2 -173 31 7 28 -16 49 -56
51 -16 1 -35 7 -41 14 -7 6 -7 11 -2 10 6 -2 30 -1 55 0 l45 3 -50 6 c-69 8
-95 2 -107 -24 -6 -13 -19 -26 -29 -28 -27 -7 -23 -22 6 -22 14 0 25 3 25 8 0
4 5 7 10 7 6 0 10 -13 10 -30 0 -22 -5 -30 -18 -30 -10 0 -23 -5 -30 -12 -9
-9 -12 -9 -12 1 0 7 -4 10 -9 7 -17 -11 10 -76 31 -76 11 0 16 5 13 10 -3 6
-3 10 2 10 4 0 15 14 22 32 8 18 16 27 18 21 7 -20 -70 -163 -87 -163 -13 0
-13 -1 0 -10 13 -9 13 -11 0 -21 -13 -8 -12 -10 4 -7 11 2 20 12 22 22 1 10 9
25 16 32 11 11 13 7 12 -24 -1 -20 -3 -75 -4 -122 l-3 -85 229 -5 c126 -3 219
-8 207 -11 -22 -7 -22 -9 -17 -165 3 -88 7 -167 9 -176 2 -13 -3 -18 -21 -18
-22 0 -24 3 -23 58 4 178 -1 240 -18 247 -10 4 -88 7 -173 7 -85 0 -144 3
-130 5 31 6 52 22 44 34 -3 5 -34 9 -70 9 -61 0 -64 -1 -64 -24 0 -15 7 -26
20 -29 18 -5 19 -11 15 -69 -5 -62 -5 -62 9 -28 15 38 22 31 29 -30 2 -19 5 0
5 43 1 42 6 77 11 77 8 0 21 -80 21 -137 0 -30 3 -33 30 -33 20 0 30 5 30 15
0 8 6 15 13 15 9 0 13 -12 12 -34 -2 -32 -1 -34 22 -25 13 5 36 8 51 8 24 -1
23 -3 -8 -9 -23 -5 -27 -8 -13 -9 33 -2 18 -31 -16 -30 -23 0 -24 1 -6 9 18 8
17 9 -6 9 -24 1 -27 -3 -31 -38 l-3 -39 65 -4 c67 -4 102 3 81 16 -18 11 -13
26 12 36 18 7 13 9 -28 11 -29 1 -40 4 -25 6 13 3 33 11 42 18 16 11 17 14 3
25 -18 15 -11 30 14 30 15 0 20 -11 25 -60 4 -33 4 -65 1 -70 -11 -18 -60 -39
-140 -60 -43 -12 -92 -31 -109 -43 -22 -15 -27 -16 -17 -4 9 12 10 17 2 17 -8
0 -11 21 -9 63 1 34 -1 68 -6 75 -10 17 -26 15 -20 -3 8 -20 -13 -45 -32 -38
-8 3 -14 -1 -14 -10 0 -11 9 -15 28 -14 26 2 27 0 30 -47 3 -47 3 -48 -22 -42
-20 5 -24 3 -20 -9 4 -8 10 -15 15 -15 13 0 4 -43 -9 -48 -16 -5 -15 11 0 26
9 9 8 12 -4 12 -19 0 -29 -34 -19 -63 10 -27 79 -33 98 -8 11 14 12 14 13 -4
0 -17 3 -15 18 9 15 25 25 30 67 32 44 3 64 15 65 37 0 5 -4 5 -10 2 -5 -3
-10 -1 -10 4 0 6 6 11 14 11 8 0 16 3 18 8 7 16 78 75 83 70 3 -3 -17 -32 -45
-64 -73 -83 -78 -94 -42 -94 31 0 42 -18 42 -67 0 -19 -6 -23 -29 -23 -25 0
-31 5 -36 30 -8 35 -28 38 -93 13 -34 -13 -45 -14 -51 -4 -6 9 -10 7 -13 -7
-4 -15 -2 -19 9 -15 11 4 14 1 11 -8 -2 -8 -14 -15 -25 -17 -12 -2 -24 -11
-28 -20 -4 -9 -9 -83 -12 -164 -4 -135 -3 -147 14 -151 17 -4 17 -5 1 -6 -22
-1 -23 -17 -2 -29 15 -8 14 -10 -2 -18 -14 -6 4 -10 61 -14 l80 -6 -76 -2
c-73 -2 -77 -3 -81 -27 -6 -30 -2 -35 31 -36 l26 -1 -25 -7 c-15 -4 -26 -15
-26 -26 -1 -11 -5 -29 -10 -39 -7 -17 -4 -18 30 -12 26 5 36 4 31 -3 -3 -6
-18 -11 -34 -11 -24 0 -27 -4 -29 -35 -2 -30 1 -35 25 -41 48 -10 49 -12 10
-13 -21 -1 -36 -5 -33 -10 3 -5 -1 -11 -9 -15 -12 -4 -15 6 -15 61 0 93 -8 75
-14 -32 -3 -50 -14 -115 -25 -145 -31 -92 -33 -118 -11 -140 20 -20 33 -20
993 -14 1058 6 997 3 997 59 0 32 39 84 90 123 25 18 53 40 63 48 9 8 20 14
23 14 3 0 22 11 42 25 35 24 35 25 12 26 -29 0 52 26 115 36 22 3 43 11 47 16
3 6 44 12 90 13 56 2 75 1 58 -5 -17 -6 10 -9 88 -10 73 -1 111 3 107 9 -3 6
4 10 17 10 19 0 20 -2 8 -11 -12 -9 -12 -10 3 -5 10 3 35 6 55 7 29 0 33 2 17
8 -11 5 -110 11 -220 15 -110 4 -203 11 -207 14 -4 4 47 5 114 4 127 -4 188 2
188 19 0 6 -14 7 -35 3 -19 -3 -61 -6 -93 -6 -218 2 -296 1 -304 -5 -6 -3 -14
0 -18 7 -5 8 -40 13 -101 15 -65 2 -78 1 -44 -3 42 -6 46 -9 27 -15 -13 -5
-41 -6 -62 -2 -43 7 -100 -1 -100 -15 0 -4 18 -11 40 -15 22 -4 40 -11 40 -16
0 -12 -32 -12 -63 0 -14 6 -37 7 -52 3 l-27 -8 28 -13 c22 -10 25 -14 14 -21
-12 -7 -9 -11 10 -19 23 -9 23 -10 -12 -10 -30 -1 -37 -5 -40 -23 -5 -26 -14
68 -25 261 -6 97 -5 138 4 150 9 12 8 23 -2 48 -9 21 -10 35 -4 39 6 3 5 12
-3 21 -15 19 -25 310 -11 324 5 5 135 12 289 15 153 3 283 9 289 15 5 5 41 9
80 9 78 0 110 14 102 46 -5 18 -5 17 -12 -3 -6 -19 -12 -22 -34 -16 -14 3 -27
9 -29 12 -1 3 -95 5 -210 4 -612 -5 -792 -4 -807 5 -22 12 78 21 235 23 63 1
126 5 140 9 14 4 19 8 13 9 -18 1 -16 21 2 21 8 0 15 -7 15 -15 0 -21 78 -21
86 0 4 8 15 15 25 15 24 0 25 -19 2 -22 -10 -1 77 -5 192 -8 116 -3 212 -2
213 3 7 14 62 8 62 -8 0 -22 17 -18 30 6 9 16 8 20 -2 18 -31 -4 -59 2 -53 11
4 6 11 7 17 4 6 -4 9 -1 6 7 -3 8 -22 17 -44 20 l-39 6 38 2 c20 0 37 6 37 11
0 6 -6 10 -12 9 -33 -4 -55 2 -55 16 0 18 18 20 36 3 10 -11 11 -10 6 5 -4 9
-11 17 -16 17 -5 0 -9 9 -9 20 0 11 5 20 10 20 6 0 10 25 10 55 0 47 -2 54
-17 49 -17 -5 -17 -5 0 9 11 10 17 29 17 58 0 38 4 46 27 57 35 16 54 15 47
-2 -8 -21 47 -28 62 -8 16 22 9 29 -11 12 -14 -11 -17 -10 -22 8 -3 13 -13 22
-24 22 -10 0 -20 4 -24 10 -3 5 9 7 30 5 l36 -5 -7 53 c-9 66 -14 72 -15 16
-1 -42 -1 -43 -10 -14 -5 17 -7 103 -4 197 4 114 3 168 -5 173 -8 5 -10 -53
-10 -197 2 -200 1 -203 -20 -206 -11 -2 -27 2 -35 8 -8 6 -19 9 -25 5 -12 -8
-14 27 -1 41 11 11 2 66 -9 59 -5 -3 -8 8 -8 25 1 16 5 30 10 30 10 0 5 23
-14 73 -9 22 -16 27 -46 27 l-35 0 23 20 c17 15 19 20 8 20 -9 0 -18 6 -21 14
-4 10 -21 14 -54 14 -35 0 -42 -3 -28 -8 l20 -9 -20 0 c-36 -1 -95 11 -90 19
5 7 88 16 212 23 22 1 39 5 36 10 -7 12 42 8 56 -5 11 -11 13 -10 9 2 -2 8
-16 21 -30 27 -14 7 -31 20 -38 28 -11 13 -6 15 39 15 44 0 51 3 51 20 0 11 5
20 10 20 6 0 10 -11 10 -25 0 -16 6 -25 16 -25 12 0 15 9 11 45 -2 25 0 45 5
45 4 0 8 -18 8 -40 0 -22 4 -40 9 -40 28 0 78 50 96 98 l20 52 46 0 c44 0 47
-1 62 -40 9 -23 22 -40 31 -40 9 0 15 3 15 8 -4 21 3 31 16 26 10 -4 15 0 15
15 0 12 -4 21 -9 21 -5 0 -9 32 -10 71 0 38 -3 74 -6 80 -4 5 7 9 24 9 21 0
32 -6 36 -20 4 -11 11 -18 16 -14 6 3 8 12 5 20 -4 9 2 14 16 14 17 0 19 3 10
12 -9 9 -93 13 -299 15 -263 3 -288 4 -295 20 -6 16 -7 16 -7 -2 -1 -27 -70
-33 -110 -9 -19 11 -35 14 -47 9 -11 -5 -24 -7 -29 -7 -6 1 -33 -21 -60 -50
-45 -47 -40 -50 9 -5 16 14 39 17 123 17 93 0 103 -2 113 -21 8 -15 8 -24 0
-33 -8 -10 -7 -15 5 -20 23 -8 19 -46 -5 -46 -11 0 -20 6 -21 13 0 6 -7 -1
-14 -18 l-14 -30 -1 37 c0 20 5 38 13 41 6 2 8 8 4 13 -4 5 -11 4 -15 -1 -8
-12 -235 -10 -299 2 -32 6 -40 11 -34 22 6 9 11 10 15 3 4 -6 14 -9 24 -5 41
13 80 34 92 48 11 14 10 17 -9 22 -17 4 -19 8 -10 19 6 8 17 14 24 14 6 0 12
7 12 15 0 8 -9 15 -19 15 -10 0 -28 9 -40 20 -21 19 -22 19 -42 1 -32 -28 -43
-32 -49 -17 -3 8 1 13 11 12 11 -1 17 7 17 21 0 31 12 39 33 20 17 -16 20 -15
53 19 19 20 46 45 61 55 27 20 27 20 48 -1 33 -33 89 -54 106 -39 8 6 14 8 14
4 0 -4 -21 -26 -46 -48 -38 -33 -43 -42 -30 -49 11 -6 27 -1 52 15 23 16 31
27 22 30 -9 4 -7 6 4 6 11 1 20 -9 24 -26 10 -47 14 -50 11 -8 l-2 40 270 5
c149 3 258 7 243 8 l-27 2 -1 173 c-1 94 -3 196 -5 225 -3 52 9 72 18 30 6
-28 0 47 -13 167 -5 50 -10 125 -10 168 0 43 -4 76 -9 73 -9 -6 -16 36 -27
159 -4 39 -8 72 -10 74 -8 8 -3 -67 12 -214 11 -100 16 -261 17 -487 1 -185 5
-340 10 -344 20 -20 -8 -24 -192 -24 -226 0 -205 -10 -216 95 -3 33 -12 85
-20 115 -7 30 -16 101 -19 156 -6 107 -4 119 51 267 25 66 25 67 62 67 44 0
101 18 101 31 0 5 11 14 25 19 14 5 25 14 25 20 0 5 6 10 13 10 14 0 76 99 83
133 2 12 6 47 9 77 l5 55 -14 -48 c-16 -55 -27 -70 -70 -96 -34 -20 -126 -34
-126 -19 0 5 5 6 11 3 6 -4 13 2 16 14 3 11 14 23 25 27 11 3 18 8 15 10 -2 3
-17 0 -33 -6 -26 -10 -27 -10 -13 7 8 10 21 32 28 48 8 17 16 24 18 18 8 -21
30 -15 37 10 3 14 0 26 -9 33 -21 16 -19 24 6 24 18 0 19 2 9 15 -10 12 -10
19 -2 27 15 15 16 58 2 58 -5 0 -10 -6 -10 -14 0 -8 -13 -41 -30 -74 -16 -34
-30 -66 -30 -72 0 -6 -12 -23 -27 -38 -17 -17 -47 -78 -81 -167 -124 -327
-123 -325 -143 -325 -13 0 -17 -5 -12 -16 4 -12 2 -15 -8 -12 -8 3 -13 10 -12
14 1 6 -142 11 -331 12 -289 3 -334 1 -346 -12 -12 -16 -35 -12 -25 4 3 4 -3
10 -13 12 -17 5 -32 63 -44 173 -1 6 -28 10 -60 9 -50 -1 -58 2 -58 18 0 15 8
18 46 18 37 0 45 3 40 15 -3 8 -1 15 4 15 6 0 10 -5 10 -12 0 -6 2 -9 5 -6 6
5 -24 190 -31 197 -2 2 -4 -6 -4 -19 0 -20 -4 -22 -31 -16 -17 3 -35 6 -40 6
-12 0 -11 77 1 85 6 3 10 2 10 -3 0 -5 11 -7 25 -4 20 3 25 0 25 -17 0 -11 5
-21 11 -21 7 0 9 9 5 23 -3 12 -6 28 -6 36 0 8 -6 11 -15 7 -8 -3 -15 -1 -15
4 0 6 -14 10 -31 10 -17 0 -28 4 -24 10 3 6 22 10 41 10 30 0 33 2 22 13 -7 8
-26 17 -41 21 -37 9 -25 27 13 19 27 -5 30 -3 30 20 0 14 -5 49 -11 77 -13 60
-5 105 16 96 10 -3 15 1 15 13 0 17 25 17 553 13 381 -3 554 -8 559 -15 4 -6
2 -19 -3 -28 -12 -24 -11 -29 6 -29 20 0 20 0 -25 -123 -40 -109 -51 -154 -26
-107 15 27 60 141 71 178 3 12 13 22 20 22 11 0 13 19 12 85 l-2 85 32 0 c31
0 32 2 36 48 3 38 4 34 5 -21 2 -52 7 -75 23 -95 l20 -26 -8 55 c-8 58 -8 169
2 206 3 14 13 23 25 23 19 0 20 -7 20 -118 l0 -119 30 5 c17 2 36 0 43 -6 18
-15 34 -2 42 33 13 58 16 65 31 65 8 0 14 7 14 15 0 9 6 12 15 9 9 -4 15 0 15
10 0 18 -11 21 -26 7 -12 -13 -61 -2 -68 14 -3 9 8 16 36 20 26 5 36 10 28 15
-9 6 -11 22 -7 54 7 50 -5 71 -49 82 -13 3 -41 15 -61 25 -46 23 -59 24 -71 3
-6 -11 -11 -13 -16 -5 -4 6 -1 11 6 12 23 1 -26 18 -52 17 -16 0 -19 -2 -7 -5
20 -5 20 -4 7 -38 -8 -20 -15 -25 -30 -20 -11 3 -20 2 -20 -4 0 -14 34 -23 55
-15 13 5 16 3 13 -7 -3 -8 -10 -14 -16 -13 -7 1 -23 2 -37 3 -20 1 -25 6 -25
26 0 14 -6 26 -12 27 -7 0 -286 2 -619 3 -333 1 -611 5 -618 9 -7 5 -10 14 -7
22 4 10 -2 14 -22 13 -24 0 -25 -1 -7 -9 18 -7 19 -8 3 -15 -10 -4 -18 -13
-18 -20 0 -18 -15 -26 -34 -19 -19 7 -22 54 -4 54 18 0 -3 16 -32 25 -21 7
-23 6 -13 -7z m-7 -33 c0 -8 -6 -15 -14 -15 -17 0 -28 14 -19 24 12 12 33 6
33 -9z m-306 -13 c2 -4 -4 -9 -15 -9 -11 -1 -17 2 -14 8 7 11 22 12 29 1z
m308 -17 c19 6 21 5 11 -6 -16 -16 -64 -2 -71 21 -4 11 0 10 16 -3 14 -13 28
-17 44 -12z m-117 10 c-26 -9 -105 -12 -105 -4 0 5 26 9 58 8 31 0 53 -2 47
-4z m1770 -25 c3 -5 -3 -10 -14 -10 -12 0 -21 5 -21 10 0 6 6 10 14 10 8 0 18
-4 21 -10z m-1661 -13 c14 3 26 1 26 -5 0 -7 -41 -11 -112 -11 -61 -1 -109 1
-106 4 10 10 114 21 139 14 14 -4 38 -5 53 -2z m116 -5 c0 -9 -10 -12 -32 -10
-44 4 -47 24 -3 24 23 0 35 -5 35 -14z m353 11 c-13 -2 -33 -2 -45 0 -13 2 -3
4 22 4 25 0 35 -2 23 -4z m84 1 c-3 -3 -12 -4 -19 -1 -8 3 -5 6 6 6 11 1 17
-2 13 -5z m428 -4 c-3 -5 -11 -10 -16 -10 -6 0 -7 5 -4 10 3 6 11 10 16 10 6
0 7 -4 4 -10z m-1253 -42 c-10 -10 -79 -14 -260 -16 -136 -2 -243 0 -239 4 5
5 119 11 255 14 136 4 249 7 252 8 2 1 -2 -4 -8 -10z m308 0 c0 -5 -2 -8 -5
-8 -170 0 -227 3 -210 10 24 10 215 8 215 -2z m1263 2 c75 1 87 -1 87 -16 0
-14 -7 -16 -47 -9 -27 4 -64 7 -83 6 -234 -3 -923 -1 -927 3 -3 2 -2 10 2 16
5 9 118 10 444 6 240 -4 475 -6 524 -6z m372 0 c4 -6 -6 -10 -22 -10 -22 0
-25 2 -13 10 19 12 27 12 35 0z m-2465 -10 c-11 -7 -11 -10 -2 -10 7 0 10 -5
7 -10 -8 -13 -25 -3 -25 16 0 8 8 14 18 14 14 0 15 -2 2 -10z m957 4 c-3 -3
-12 -4 -19 -1 -8 3 -5 6 6 6 11 1 17 -2 13 -5z m143 -6 c0 -7 -11 -14 -25 -14
-24 -2 -32 6 -18 19 11 12 43 8 43 -5z m-70 -18 c0 -5 -5 -10 -11 -10 -5 0 -7
5 -4 10 3 6 8 10 11 10 2 0 4 -4 4 -10z m1414 -5 c-4 -8 -8 -15 -10 -15 -2 0
-4 7 -4 15 0 8 4 15 10 15 5 0 7 -7 4 -15z m-2474 -4 c0 -6 -9 -9 -20 -8 -11
1 -20 5 -20 9 0 4 9 8 20 8 11 0 20 -4 20 -9z m247 3 c-3 -3 -12 -4 -19 -1 -8
3 -5 6 6 6 11 1 17 -2 13 -5z m630 -14 c4 -12 3 -13 -5 -1 -8 12 -55 13 -283
7 -164 -4 -286 -3 -304 3 -20 6 74 9 279 8 266 -2 310 -4 313 -17z m1541 1
c22 -18 31 -71 12 -71 -5 0 -10 14 -10 31 0 23 -4 30 -14 26 -15 -6 -30 16
-19 27 8 8 7 9 31 -13z m-2250 2 c-21 -2 -55 -2 -75 0 -21 2 -4 4 37 4 41 0
58 -2 38 -4z m938 -18 c-3 -11 -6 -28 -6 -37 0 -10 -7 -18 -15 -18 -8 0 -15
-4 -15 -10 0 -11 -59 -14 -84 -4 -33 13 -14 24 39 24 48 0 55 2 55 20 0 21
-12 24 -77 20 -22 -1 -33 3 -33 12 0 11 17 14 71 14 65 -1 70 -2 65 -21z m694
16 c179 -1 231 -4 222 -13 -13 -13 -857 -17 -869 -4 -17 17 28 21 214 20 109
-1 304 -2 433 -3z m264 -38 c-8 -25 -16 -49 -19 -51 -9 -9 -5 46 5 72 17 45
29 28 14 -21z m-1499 26 c4 -6 14 -8 22 -5 11 4 13 2 9 -9 -4 -13 9 -15 89
-15 75 0 95 -3 95 -14 0 -19 -27 -28 -37 -13 -9 14 0 13 -165 17 -73 2 -116 5
-95 7 22 3 37 9 37 18 0 12 13 22 32 24 4 1 10 -4 13 -10z m120 0 c10 -14 1
-21 -19 -13 -9 3 -13 10 -10 15 7 12 21 11 29 -2z m1512 -5 c2 -6 -12 -11 -33
-12 -41 -2 -57 5 -48 19 8 13 76 7 81 -7z m-1342 -4 c3 -5 -3 -10 -14 -10 -11
0 -23 5 -26 10 -3 6 3 10 14 10 11 0 23 -4 26 -10z m1622 4 c-3 -3 -12 -4 -19
-1 -8 3 -5 6 6 6 11 1 17 -2 13 -5z m-1700 -10 c-3 -3 -12 -4 -19 -1 -8 3 -5
6 6 6 11 1 17 -2 13 -5z m83 -28 c0 -8 -4 -17 -9 -20 -5 -3 -7 -16 -4 -27 4
-16 2 -20 -8 -17 -8 2 -15 21 -17 41 -3 32 0 37 17 37 12 0 21 -6 21 -14z
m1230 -2 c0 -8 -5 -12 -10 -9 -6 4 -8 11 -5 16 9 14 15 11 15 -7z m320 6 c0
-5 -4 -10 -10 -10 -5 0 -10 5 -10 10 0 6 5 10 10 10 6 0 10 -4 10 -10z m-380
-20 c0 -18 -43 -21 -260 -20 -124 0 -283 1 -355 1 -251 1 -298 3 -303 17 -3
10 87 12 457 12 254 -1 461 -5 461 -10z m149 4 c43 -9 28 -24 -24 -24 -43 0
-67 13 -43 23 19 8 32 8 67 1z m53 -29 c1 -11 8 -23 13 -27 6 -5 4 -8 -5 -9
-8 0 -4 -5 10 -9 l25 -8 -27 -1 c-26 -1 -28 2 -28 41 0 42 5 49 12 13z m-1604
-2 c-10 -2 -26 -2 -35 0 -10 3 -2 5 17 5 19 0 27 -2 18 -5z m152 -8 c0 -8 -9
-15 -20 -15 -13 0 -18 5 -14 15 4 8 12 15 20 15 8 0 14 -7 14 -15z m157 -7
c-3 -8 -6 -5 -6 6 -1 11 2 17 5 13 3 -3 4 -12 1 -19z m-87 -24 c0 -2 -15 -4
-32 -3 -27 0 -29 2 -13 8 18 8 45 4 45 -5z m38 -9 c-2 -17 -7 -24 -16 -20 -8
3 -15 5 -18 5 -2 0 4 9 13 20 22 25 23 25 21 -5z m1583 -8 c-8 -8 -11 -7 -11
4 0 20 13 34 18 19 3 -7 -1 -17 -7 -23z m-1526 -35 c-10 -11 -23 19 -17 41 5
20 6 19 15 -6 5 -16 6 -31 2 -35z m843 51 c216 -3 392 -10 392 -15 0 -4 -270
-8 -600 -8 -521 1 -600 3 -600 15 0 18 165 19 808 8z m648 -20 c1 -17 -4 -23
-20 -23 -17 0 -18 2 -6 10 13 8 12 11 -5 25 -20 15 -19 16 5 13 18 -2 25 -9
26 -25z m-561 -24 c138 -5 266 -14 285 -18 34 -9 34 -9 -15 -10 -27 -1 -232 0
-455 1 -223 1 -463 1 -535 -1 -71 -2 -127 0 -123 4 8 8 353 32 493 34 55 0
213 -4 350 -10z m-1050 -9 c-3 -5 -10 -10 -16 -10 -5 0 -9 5 -9 10 0 6 7 10
16 10 8 0 12 -4 9 -10z m78 3 c-7 -2 -19 -2 -25 0 -7 3 -2 5 12 5 14 0 19 -2
13 -5z m47 -17 c0 -3 -4 -8 -10 -11 -5 -3 -10 -1 -10 4 0 6 5 11 10 11 6 0 10
-2 10 -4z m1242 -78 c-15 -15 -26 -4 -18 18 5 13 9 15 18 6 9 -9 9 -15 0 -24z
m-1188 -80 c16 -52 16 -68 -2 -68 -26 0 -42 20 -42 52 0 21 5 28 20 28 11 0
22 -6 24 -12z m-97 -644 c-3 -3 -12 -4 -19 -1 -8 3 -5 6 6 6 11 1 17 -2 13 -5z
m179 -60 c-17 -6 -39 -10 -49 -8 -10 2 -21 -3 -24 -11 -3 -8 -12 -15 -20 -15
-12 0 -13 3 -4 14 10 12 7 15 -21 19 -18 2 3 5 47 6 57 2 73 5 55 11 l-25 8
28 1 c15 1 27 7 28 14 0 6 4 3 8 -8 7 -16 3 -22 -23 -31z m597 -1 c-90 -2
-236 -2 -325 0 -90 1 -17 3 162 3 179 0 252 -2 163 -3z m155 -28 c3 -3 3 -8
-1 -11 -7 -8 -338 7 -333 15 5 7 326 4 334 -4z m-405 -2 c-13 -2 -35 -2 -50 0
-16 2 -5 4 22 4 28 0 40 -2 28 -4z m327 -30 c0 -5 -24 -7 -52 -5 -89 5 -97 9
-20 11 39 0 72 -2 72 -6z m68 0 c-10 -2 -26 -2 -35 0 -10 3 -2 5 17 5 19 0 27
-2 18 -5z m-660 -77 c3 -15 -3 -17 -39 -14 -52 4 -64 25 -17 31 45 5 52 3 56
-17z m-115 7 c-7 -2 -19 -2 -25 0 -7 3 -2 5 12 5 14 0 19 -2 13 -5z m257 -3
c0 -5 -2 -10 -4 -10 -3 0 -8 5 -11 10 -3 6 -1 10 4 10 6 0 11 -4 11 -10z m217
4 c-9 -9 -174 -11 -195 -2 -9 4 32 7 92 7 60 1 106 -2 103 -5z m33 -4 c0 -5
-4 -10 -10 -10 -5 0 -10 5 -10 10 0 6 5 10 10 10 6 0 10 -4 10 -10z m60 1 c0
-5 -11 -8 -25 -8 -14 0 -25 3 -25 8 0 5 11 9 25 9 14 0 25 -4 25 -9z m180 2
c0 -5 -36 -8 -79 -8 -44 0 -83 3 -87 8 -4 4 32 7 79 7 48 0 87 -3 87 -7z m110
-18 c0 -8 -7 -15 -15 -15 -16 0 -20 12 -8 23 11 12 23 8 23 -8z m-805 -33 c-3
-3 -11 0 -18 7 -9 10 -8 11 6 5 10 -3 15 -9 12 -12z m807 -69 c15 -15 28 -33
28 -41 0 -8 -10 0 -23 19 -18 28 -31 35 -67 40 l-45 6 39 1 c31 2 46 -4 68
-25z m-722 -3 c0 -13 -7 -20 -20 -20 -13 0 -20 7 -20 20 0 13 7 20 20 20 13 0
20 -7 20 -20z m605 10 c-3 -5 -1 -10 5 -10 6 0 8 -4 5 -10 -10 -16 -23 -11
-20 8 5 23 4 22 11 22 3 0 2 -4 -1 -10z m-35 -14 c0 -2 -39 -39 -87 -82 -78
-68 -116 -110 -85 -90 6 3 14 1 17 -5 5 -7 1 -10 -10 -7 -10 2 -37 -15 -64
-40 -41 -38 -44 -44 -28 -53 24 -14 21 -26 -8 -33 -14 -4 -23 -11 -20 -16 4
-6 -7 -22 -24 -36 -22 -18 -31 -35 -31 -55 0 -32 -10 -35 -55 -15 l-30 14 33
12 c24 9 30 15 21 21 -10 6 -6 14 16 31 16 13 36 22 43 20 8 -2 11 1 7 7 -10
17 -22 13 -58 -19 -19 -16 -38 -30 -43 -30 -5 0 -27 -17 -49 -37 -22 -21 -14
-11 20 22 91 91 423 393 433 395 1 0 2 -2 2 -4z m140 -11 c0 -2 -10 -10 -22
-16 -21 -11 -22 -11 -9 4 13 16 31 23 31 12z m-80 -35 c0 -13 -11 -13 -30 0
-12 8 -11 10 8 10 12 0 22 -4 22 -10z m40 -14 c0 -8 -4 -17 -9 -21 -12 -7 -24
12 -16 25 9 15 25 12 25 -4z m47 -28 l10 -33 16 35 c11 26 16 30 16 15 1 -32
-26 -64 -49 -58 -27 7 -32 17 -24 48 8 34 19 32 31 -7z m-177 18 c0 -3 -4 -8
-10 -11 -5 -3 -10 -1 -10 4 0 6 5 11 10 11 6 0 10 -2 10 -4z m-50 -46 c-9 -6
-9 -9 1 -13 10 -4 9 -6 -3 -6 -10 -1 -18 5 -18 12 0 18 11 28 22 20 6 -3 5 -9
-2 -13z m143 9 c20 -5 37 -15 37 -22 0 -7 14 -18 30 -24 18 -7 30 -18 30 -29
0 -16 -2 -16 -15 3 -12 17 -24 21 -60 20 -31 -1 -50 3 -62 16 -16 16 -16 17
17 18 l35 1 -32 9 c-18 5 -33 12 -33 14 0 7 11 6 53 -6z m-173 -33 c0 -3 -4
-8 -10 -11 -5 -3 -10 -1 -10 4 0 6 5 11 10 11 6 0 10 -2 10 -4z m185 -106
c-10 -11 -20 -18 -23 -16 -5 6 21 35 32 36 5 0 1 -9 -9 -20z m-207 -33 c4 -19
-6 -21 -27 -8 -16 10 -5 34 12 28 7 -2 13 -11 15 -20z m-1021 -9 c-3 -8 -6 -5
-6 6 -1 11 2 17 5 13 3 -3 4 -12 1 -19z m163 -4 c0 -2 -9 -4 -21 -4 -11 0 -18
4 -14 10 5 8 35 3 35 -6z m-423 0 c-3 -3 -12 -4 -19 -1 -8 3 -5 6 6 6 11 1 17
-2 13 -5z m843 -18 c0 -8 -7 -17 -16 -20 -14 -5 -15 -4 -5 8 9 11 9 15 -1 19
-8 4 -7 6 5 6 9 1 17 -5 17 -13z m-960 -11 c0 -8 -4 -15 -10 -15 -5 0 -10 7
-10 15 0 8 5 15 10 15 6 0 10 -7 10 -15z m1329 -4 c10 -7 7 -9 -12 -8 -14 1
-23 5 -20 10 6 9 15 9 32 -2z m67 -12 c10 -17 -13 -36 -27 -22 -12 12 -4 33
11 33 5 0 12 -5 16 -11z m-840 -13 c10 -11 14 -43 14 -129 l0 -114 78 -5 c42
-2 106 -1 142 2 75 7 100 3 100 -16 0 -11 -30 -14 -160 -14 -137 0 -160 -2
-160 -15 0 -13 -14 -15 -87 -13 l-88 3 -6 35 c-9 58 -40 111 -82 141 -74 54
-137 30 -137 -51 0 -19 -4 -41 -9 -49 -15 -23 -25 7 -25 81 -1 50 -5 72 -16
78 -9 6 -10 10 -3 10 7 0 15 16 19 35 l6 35 200 0 c159 0 202 -3 214 -14z
m784 0 c0 -2 -7 -7 -16 -10 -8 -3 -12 -2 -9 4 6 10 25 14 25 6z m665 -33 c2
-21 -3 -23 -54 -24 -48 -1 -51 -2 -24 -9 18 -4 79 -6 137 -5 74 1 106 -1 110
-10 10 -28 -12 -34 -146 -37 l-136 -3 -7 -42 c-4 -28 -16 -53 -36 -73 -26 -25
-38 -30 -77 -29 -42 1 -44 2 -17 9 l30 8 -27 1 c-15 0 -30 6 -34 12 -4 8 -9 7
-14 -2 -10 -15 -34 1 -52 35 l-11 21 24 -20 c35 -30 124 -27 167 5 69 51 25
122 -73 116 -38 -2 -45 0 -45 16 0 14 8 18 38 18 21 0 49 -7 62 -16 24 -16 24
-16 8 2 -10 10 -39 21 -65 25 l-48 6 43 2 c24 0 56 -6 72 -14 40 -21 38 -10
-2 15 l-33 20 104 -2 c100 -3 104 -4 106 -25z m130 2 c0 -23 -4 -25 -42 -25
-39 0 -43 2 -43 25 0 23 4 25 43 25 38 0 42 -2 42 -25z m-2191 -16 c-8 -13
-24 -1 -24 18 0 13 3 13 15 3 8 -7 12 -16 9 -21z m1339 17 c3 -8 -1 -20 -9
-26 -9 -8 -14 -9 -14 -2 0 6 -3 17 -6 26 -4 10 -1 16 9 16 8 0 17 -6 20 -14z
m-1343 -61 c0 -8 -7 -15 -15 -15 -9 0 -12 6 -9 15 4 8 10 15 15 15 5 0 9 -7 9
-15z m1336 -80 c-55 -52 -104 -96 -110 -96 -40 -5 -68 -4 -72 3 -7 11 35 30
48 22 6 -4 18 2 26 12 13 16 14 17 9 2 -4 -10 -3 -18 1 -18 14 0 133 126 126
133 -4 4 -2 7 5 7 7 0 19 7 27 15 9 8 21 15 27 15 7 -1 -33 -43 -87 -95z
m-1276 77 c0 -8 -61 -34 -67 -28 -3 3 55 35 65 36 1 0 2 -4 2 -8z m1762 -8
c-13 -9 -26 -13 -30 -9 -8 8 17 25 38 25 9 0 6 -6 -8 -16z m-610 0 c23 -4 38
-13 41 -25 7 -28 -18 -30 -43 -4 -13 14 -37 26 -59 28 -32 3 -32 4 -6 5 17 1
46 -1 67 -4z m646 -34 c3 -7 1 -10 -4 -7 -12 7 -35 -19 -26 -29 4 -4 1 -4 -5
0 -7 4 -13 16 -13 26 0 29 39 38 48 10z m-1878 6 c0 -3 -4 -8 -10 -11 -5 -3
-10 -1 -10 4 0 6 5 11 10 11 6 0 10 -2 10 -4z m1080 -43 c-3 -30 -10 -48 -17
-47 -7 1 -22 2 -33 3 -11 0 -20 4 -20 9 0 10 60 82 69 82 4 0 4 -21 1 -47z
m92 27 c5 16 58 1 58 -16 0 -7 8 -18 18 -23 14 -9 11 -10 -15 -11 -21 0 -32 5
-30 13 1 7 -11 13 -30 15 -22 2 -33 9 -33 19 0 12 3 13 14 4 10 -9 15 -9 18
-1z m-819 -12 c-6 -11 -41 -10 -47 1 -3 4 8 8 23 7 16 -1 27 -4 24 -8z m-20
-38 c3 -12 0 -20 -8 -20 -14 0 -27 25 -18 34 11 11 21 6 26 -14z m82 10 c-3
-5 -12 -10 -18 -10 -7 0 -6 4 3 10 19 12 23 12 15 0z m760 -20 c-5 -8 -11 -8
-17 -2 -6 6 -7 16 -3 22 5 8 11 8 17 2 6 -6 7 -16 3 -22z m715 15 c-14 -17
-44 -18 -75 -5 -14 6 -7 7 21 3 26 -3 44 -1 48 6 4 6 10 11 13 11 3 0 0 -7 -7
-15z m125 4 c-4 -6 1 -17 11 -24 17 -13 17 -14 2 -15 -11 0 -15 -7 -13 -25 1
-14 -2 -25 -6 -25 -5 0 -9 3 -10 8 0 4 -2 18 -4 32 -4 32 3 60 16 60 6 0 7 -5
4 -11z m59 -11 c-8 -27 -35 -70 -40 -65 -4 4 36 87 43 87 2 0 1 -10 -3 -22z
m-964 -3 c0 -8 -2 -15 -4 -15 -2 0 -6 7 -10 15 -3 8 -1 15 4 15 6 0 10 -7 10
-15z m1140 6 c0 -6 -4 -13 -10 -16 -5 -3 -10 1 -10 9 0 9 5 16 10 16 6 0 10
-4 10 -9z m-1840 -32 c0 -5 -4 -9 -10 -9 -5 0 -10 7 -10 16 0 8 5 12 10 9 6
-3 10 -10 10 -16z m720 -18 c-8 -16 -20 -21 -53 -21 -24 0 -51 6 -62 13 -29
22 -1 30 41 12 36 -15 39 -14 58 4 24 25 32 20 16 -8z m-774 8 c3 -5 -6 -9
-20 -9 -14 0 -27 4 -30 9 -3 5 6 9 19 9 14 0 28 -4 31 -9z m1184 -4 c-10 -12
-7 -15 16 -21 15 -4 35 -2 44 4 13 8 21 7 29 -1 9 -9 16 -8 31 1 14 8 20 9 20
1 0 -6 6 -9 14 -6 8 3 27 2 43 -3 19 -6 -16 -9 -106 -9 -126 -1 -133 0 -120
17 14 17 31 32 38 32 2 0 -2 -7 -9 -15z m40 5 c0 -5 -4 -10 -10 -10 -5 0 -10
5 -10 10 0 6 5 10 10 10 6 0 10 -4 10 -10z m-1490 -11 c0 -5 -19 -9 -42 -8
-35 1 -38 2 -18 8 38 11 60 11 60 0z m1284 -14 c4 -12 -4 -15 -47 -13 -43 1
-46 2 -14 5 20 2 35 8 32 14 -4 5 0 9 8 9 8 0 17 -7 21 -15z m-939 -5 c4 -6
-5 -10 -20 -10 -15 0 -24 4 -20 10 3 6 12 10 20 10 8 0 17 -4 20 -10z m-155
-11 c11 -7 4 -8 -25 -3 -50 8 -58 14 -19 14 16 0 36 -5 44 -11z m1146 -6 c10
-15 15 -16 25 -5 7 6 17 12 21 12 4 0 -1 -9 -13 -21 -11 -11 -19 -22 -17 -24
2 -2 82 -5 179 -6 161 -2 175 -4 175 -21 0 -17 -11 -18 -136 -16 -74 1 -107 3
-72 5 34 2 62 8 62 13 0 12 -159 12 -215 1 -39 -8 -38 -9 25 -11 41 -2 53 -5
31 -7 -48 -6 -81 -44 -48 -56 8 -3 6 -7 -5 -12 -10 -4 -25 -5 -33 -1 -22 8
-18 37 5 43 28 7 25 23 -4 23 -13 0 -26 6 -29 13 -3 9 -9 9 -24 1 -10 -6 -33
-15 -51 -18 -17 -4 -34 -12 -37 -17 -4 -5 -21 -9 -38 -9 -29 0 -33 3 -31 28 1
25 5 28 65 38 41 6 57 12 44 16 -16 4 -14 6 8 7 17 1 26 -3 22 -9 -4 -6 13
-10 44 -10 51 0 70 17 31 27 -21 5 -25 15 -13 26 10 10 15 9 29 -10z m-1007
-9 c22 -5 31 -12 31 -26 0 -13 -5 -18 -17 -15 -18 3 -73 -18 -73 -29 0 -9 44
8 53 20 6 7 7 5 4 -5 -3 -9 1 -26 9 -37 13 -19 13 -22 -3 -30 -27 -13 -216
-16 -208 -3 3 6 26 11 51 11 39 0 44 3 44 22 0 21 -1 21 -13 4 -11 -15 -18
-17 -33 -8 -18 10 -18 11 -1 17 9 4 17 12 17 17 0 6 -6 5 -15 -2 -17 -15 -19
-7 -5 21 9 17 7 19 -16 19 -54 0 -11 15 59 21 40 3 75 6 78 7 4 1 21 -1 38 -4z
m819 -6 c18 -18 14 -28 -10 -28 -19 0 -20 2 -8 10 13 9 13 11 0 20 -8 5 -10
10 -4 10 5 0 15 -5 22 -12z m-268 -23 c0 -25 -23 -35 -35 -15 -4 6 -56 10
-122 10 -99 0 -118 -3 -129 -17 -12 -17 -13 -17 -19 0 -17 43 -4 47 155 47
l150 0 0 -25z m820 15 c0 -5 -15 -9 -32 -9 l-33 1 30 8 c17 4 31 8 33 9 1 0 2
-3 2 -9z m-650 -10 c0 -5 -4 -10 -10 -10 -5 0 -10 5 -10 10 0 6 5 10 10 10 6
0 10 -4 10 -10z m377 4 c-3 -3 -12 -4 -19 -1 -8 3 -5 6 6 6 11 1 17 -2 13 -5z
m-1540 -36 c-3 -7 -5 -2 -5 12 0 14 2 19 5 13 2 -7 2 -19 0 -25z m1066 25 c-7
-2 -21 -2 -30 0 -10 3 -4 5 12 5 17 0 24 -2 18 -5z m-858 -44 c0 -24 -5 -34
-15 -34 -16 0 -25 37 -16 62 10 26 31 8 31 -28z m55 26 c0 -8 -7 -15 -16 -15
-8 0 -12 -5 -9 -10 4 -6 11 -8 16 -5 5 4 9 -1 9 -9 0 -9 -9 -16 -20 -16 -16 0
-20 7 -20 35 0 28 4 35 20 35 11 0 20 -7 20 -15z m847 -31 c-36 -19 -30 -28 9
-14 33 13 34 13 -29 -35 -54 -40 -74 -40 -36 1 23 25 23 26 2 15 -12 -6 -25
-16 -28 -21 -3 -6 -15 -10 -25 -10 -10 0 -22 -5 -25 -10 -10 -16 5 -50 21 -50
24 0 185 121 177 133 -3 6 -1 7 5 3 8 -5 12 -42 12 -107 l0 -99 -62 -2 c-35
-1 -142 -2 -240 -2 -97 -1 -180 -4 -184 -8 -4 -4 -11 -5 -17 -1 -5 3 -46 5
-91 4 -119 -3 -116 -6 -116 105 0 52 3 94 6 94 4 0 97 -73 114 -90 18 -18 72
-50 84 -50 20 0 29 16 21 40 -9 28 -28 25 -20 -2 5 -21 4 -21 -17 5 -27 31
-40 35 -31 10 4 -14 -1 -11 -23 8 -16 14 -46 38 -67 53 -43 32 -44 46 0 21 17
-11 21 -11 11 -2 -10 8 -18 17 -18 19 0 3 134 6 298 6 272 1 295 0 269 -14z
m-1559 -17 c5 -25 -15 -46 -38 -40 -24 6 -34 32 -19 50 16 19 53 12 57 -10z
m1827 3 c-3 -5 -12 -10 -18 -10 -7 0 -6 4 3 10 19 12 23 12 15 0z m200 -12 c7
-7 -2 -8 -25 -3 -59 13 -80 26 -30 19 25 -3 50 -11 55 -16z m-175 -7 c0 -12
-39 -25 -48 -16 -7 7 17 25 36 25 6 0 12 -4 12 -9z m-1290 -18 c0 -8 -12 -13
-29 -13 -30 0 -46 12 -34 24 11 11 63 2 63 -11z m1194 8 c3 -5 -5 -8 -19 -7
-14 0 -25 4 -25 9 0 10 38 9 44 -2z m-62 -47 c3 -44 -2 -61 -16 -47 -9 10 -7
93 3 93 5 0 11 -21 13 -46z m518 31 c0 -9 -7 -18 -15 -21 -10 -4 -13 -16 -11
-37 l4 -32 -18 23 c-10 12 -21 22 -25 22 -14 0 -55 -51 -55 -70 0 -11 -3 -20
-7 -21 -5 0 -48 -2 -96 -3 -48 -2 -91 -6 -94 -10 -4 -3 1 -6 9 -6 9 0 15 -7
14 -15 -3 -21 -16 -31 -16 -12 0 23 -20 22 -20 0 -1 -17 -1 -17 -14 0 -18 23
-26 22 -27 -5 0 -23 0 -23 -10 1 -9 23 -10 24 -24 5 -12 -15 -14 -16 -15 -3 0
11 -12 15 -50 15 -42 0 -50 -3 -53 -20 -3 -16 -5 -14 -6 7 -1 26 1 27 47 28
26 1 54 0 61 -1 12 -1 13 1 3 13 -7 8 -22 13 -32 10 -11 -3 -20 -1 -20 5 0 5
10 12 21 15 17 5 20 11 15 31 l-6 26 107 2 108 2 -108 3 c-94 3 -108 6 -105
20 2 9 9 18 17 21 8 3 11 0 8 -5 -9 -14 101 -15 139 -1 26 9 44 9 77 1 23 -7
46 -8 50 -4 5 5 27 6 50 4 28 -3 49 0 62 11 26 20 35 20 35 1z m-1387 -23 c-7
-17 -46 -91 -67 -124 -6 -10 -17 -18 -25 -18 -11 0 -11 -3 -1 -15 10 -12 9
-15 -6 -16 -17 -1 -17 -2 -1 -6 9 -2 17 -9 17 -15 0 -6 9 -8 20 -5 24 6 26 -6
5 -27 -22 -22 -18 -33 11 -33 28 0 47 -20 39 -41 -3 -8 -5 -25 -5 -38 0 -15
-6 -24 -15 -24 -10 0 -15 -7 -13 -17 5 -28 -52 -31 -59 -4 -3 12 -11 21 -18
21 -7 0 -12 10 -11 23 1 12 -2 25 -7 28 -14 10 2 29 24 29 11 0 19 7 19 16 0
13 -3 14 -14 5 -18 -16 -25 4 -26 79 -1 30 -1 62 -1 70 -1 21 9 72 15 77 2 3
22 6 43 7 38 2 63 11 63 24 0 4 -28 6 -62 5 -35 -2 -55 1 -46 5 10 4 42 8 72
9 49 2 55 1 49 -15z m922 -2 c0 -7 -7 -15 -15 -17 -13 -4 -13 -3 0 6 13 10 13
12 0 22 -13 9 -13 10 0 6 8 -2 15 -10 15 -17z m-1197 3 c-10 -2 -26 -2 -35 0
-10 3 -2 5 17 5 19 0 27 -2 18 -5z m345 0 c-7 -2 -21 -2 -30 0 -10 3 -4 5 12
5 17 0 24 -2 18 -5z m567 -7 c0 -3 -4 -8 -10 -11 -5 -3 -10 -1 -10 4 0 6 5 11
10 11 6 0 10 -2 10 -4z m-897 -83 c-1 -32 -2 -66 -3 -76 0 -10 -4 -15 -10 -12
-5 3 -10 -1 -10 -10 0 -11 -7 -15 -22 -13 -14 2 -22 9 -19 18 9 38 0 120 -12
120 -5 0 -4 7 3 15 7 8 27 15 44 15 l31 0 -2 -57z m-603 27 c-9 -16 -8 -20 5
-20 8 0 15 -9 15 -20 0 -11 -4 -20 -10 -20 -5 0 -10 7 -10 15 0 8 -3 14 -7 14
-21 -3 -22 3 -7 26 19 30 29 33 14 5z m55 10 c-3 -5 -11 -10 -16 -10 -6 0 -7
5 -4 10 3 6 11 10 16 10 6 0 7 -4 4 -10z m193 3 c-21 -2 -57 -2 -80 0 -24 2
-7 4 37 4 44 0 63 -2 43 -4z m-40 -37 c-10 -8 -14 -16 -8 -22 4 -5 10 -34 11
-64 1 -30 6 -63 11 -72 11 -22 -8 -34 -20 -12 -5 9 -7 25 -5 35 3 11 0 26 -8
35 -17 21 -20 117 -3 110 8 -3 16 -1 20 5 3 6 9 7 12 4 4 -4 -1 -12 -10 -19z
m2069 4 c14 -11 23 -20 19 -20 -4 0 -2 -8 3 -18 13 -24 -12 -62 -40 -62 -17 0
-19 7 -19 60 0 33 3 60 6 60 3 0 17 -9 31 -20z m-2163 -2 c-6 -10 -64 -11 -64
0 0 4 16 7 35 8 18 0 32 -3 29 -8z m816 3 c0 -6 -4 -13 -10 -16 -5 -3 -10 1
-10 9 0 9 5 16 10 16 6 0 10 -4 10 -9z m824 -16 c3 -8 1 -15 -4 -15 -6 0 -10
7 -10 15 0 8 2 15 4 15 2 0 6 -7 10 -15z m-910 -22 c-3 -16 -1 -39 3 -52 11
-27 5 -81 -8 -81 -5 0 -9 19 -9 43 0 24 -5 48 -10 53 -7 7 -8 19 -1 37 14 35
32 35 25 0z m1362 2 c-11 -8 -29 -15 -40 -14 -15 0 -10 4 14 13 46 18 48 18
26 1z m-506 -26 c0 -5 -34 -9 -75 -9 -46 0 -75 -4 -75 -11 0 -6 9 -8 20 -4 11
4 20 2 20 -4 0 -15 -57 -14 -64 2 -5 10 -7 10 -12 0 -8 -18 -27 -16 -21 1 5
12 -6 16 -46 19 -29 2 0 5 63 7 63 2 125 2 138 1 12 -1 22 3 22 8 0 6 7 8 15
5 8 -4 15 -10 15 -15z m-1620 1 c-19 -4 -44 -10 -55 -14 -13 -5 -11 -2 5 8 14
8 39 15 55 14 29 0 29 0 -5 -8z m1028 -3 c44 6 78 6 88 0 15 -9 68 -6 120 6
11 3 27 1 34 -3 24 -15 -48 -21 -214 -18 -111 2 -161 7 -163 15 -3 9 4 9 30 1
22 -7 58 -7 105 -1z m996 -2 c3 -8 1 -15 -4 -15 -6 0 -10 5 -10 11 0 6 -6 9
-12 6 -7 -2 -12 -10 -10 -16 1 -6 -2 -11 -8 -11 -5 0 -10 7 -10 15 0 8 -4 15
-10 15 -5 0 -10 -8 -10 -17 0 -15 -2 -14 -14 3 -14 18 -15 18 -22 1 -5 -15 -9
-16 -15 -5 -16 24 -9 28 55 28 48 0 65 -4 70 -15z m-1934 -71 c0 -13 -5 -26
-10 -29 -13 -8 -42 14 -35 25 3 4 -7 19 -22 34 l-26 26 27 0 c19 0 25 4 20 13
-3 6 5 -1 20 -17 14 -16 26 -39 26 -52z m1967 54 c-3 -8 -6 -5 -6 6 -1 11 2
17 5 13 3 -3 4 -12 1 -19z m39 -5 c-10 -10 -19 5 -10 18 6 11 8 11 12 0 2 -7
1 -15 -2 -18z m48 -4 c-8 -13 -24 -1 -24 18 0 13 3 13 15 3 8 -7 12 -16 9 -21z
m-2251 -51 c3 -35 8 -77 12 -94 5 -24 3 -33 -11 -38 -9 -3 -19 -4 -22 -2 -11
12 -5 196 7 196 5 0 12 -28 14 -62z m1457 52 c0 -5 -5 -10 -11 -10 -5 0 -7 5
-4 10 3 6 8 10 11 10 2 0 4 -4 4 -10z m40 0 c0 -5 -4 -10 -10 -10 -5 0 -10 5
-10 10 0 6 5 10 10 10 6 0 10 -4 10 -10z m150 0 c0 -5 -4 -10 -10 -10 -5 0
-10 5 -10 10 0 6 5 10 10 10 6 0 10 -4 10 -10z m-1298 -15 c0 -5 -5 -11 -11
-13 -6 -2 -11 4 -11 13 0 9 5 15 11 13 6 -2 11 -8 11 -13z m1024 -7 c8 -25 -4
-40 -27 -33 -11 4 -19 2 -19 -5 0 -7 -28 -10 -80 -9 -58 1 -80 5 -80 14 0 8 6
16 13 18 6 3 3 6 -8 7 -18 1 -18 2 -4 13 10 7 51 12 108 12 78 0 92 -2 97 -17z
m964 1 c0 -5 -4 -9 -10 -9 -5 0 -10 7 -10 16 0 8 5 12 10 9 6 -3 10 -10 10
-16z m-2205 -34 c0 -17 -6 -31 -13 -31 -6 -1 -21 -2 -31 -3 -11 0 -23 -11 -27
-23 l-6 -21 -19 24 c-27 36 -24 56 11 64 16 4 32 11 36 16 3 6 16 9 27 7 17
-2 22 -10 22 -33z m2180 -7 l29 -33 -23 -3 c-22 -3 -23 -7 -18 -49 3 -25 11
-49 18 -54 9 -5 0 -10 -29 -15 -23 -3 -39 -10 -36 -15 3 -5 -14 -9 -38 -8 -28
0 -37 3 -25 8 10 3 -71 5 -180 3 -139 -2 -194 0 -183 7 21 15 4 14 -20 -1 -16
-10 -24 -10 -40 0 -11 7 -47 11 -82 10 l-63 -1 50 -7 50 -7 -67 -1 c-36 -1
-74 -5 -84 -9 -13 -5 -16 -2 -12 8 4 11 -8 14 -61 14 -36 0 -69 -4 -73 -10 -8
-10 -12 14 -9 48 2 12 -5 17 -20 17 l-23 0 23 21 c17 16 21 30 19 62 l-3 42
125 5 c69 3 264 4 435 3 l310 -2 30 -33z m-1675 1 c0 -5 -20 -9 -45 -9 -40 0
-54 7 -41 21 9 8 86 -3 86 -12z m743 -23 c7 -19 -1 -26 -30 -26 -25 0 -29 10
-11 28 16 16 35 15 41 -2z m-168 -12 c0 -5 -10 -10 -22 -12 -16 -2 -23 2 -23
12 0 11 7 15 23 12 12 -1 22 -7 22 -12z m-615 -4 c0 -5 -7 -7 -15 -4 -8 4 -15
8 -15 10 0 2 7 4 15 4 8 0 15 -4 15 -10z m350 -4 c0 -8 -7 -16 -15 -20 -15 -5
-21 14 -8 27 11 12 23 8 23 -7z m370 4 c0 -5 -4 -10 -10 -10 -5 0 -10 5 -10
10 0 6 5 10 10 10 6 0 10 -4 10 -10z m-1015 -20 c4 -6 -33 -10 -104 -10 -67 0
-111 4 -111 10 0 6 41 10 104 10 59 0 108 -4 111 -10z m332 -35 c3 -35 3 -35
-37 -35 -33 0 -40 3 -40 20 0 11 6 20 13 21 10 0 10 2 0 6 -26 10 -12 23 25
23 35 0 37 -2 39 -35z m508 -2 c-8 -42 4 -83 23 -83 14 0 14 -2 3 -9 -11 -7
-11 -15 -1 -45 13 -40 30 -57 30 -29 0 14 2 15 9 4 12 -19 -18 -51 -49 -51
-18 0 -21 3 -12 9 12 7 11 21 -2 86 -18 88 -21 145 -6 145 6 0 8 -12 5 -27z
m1283 0 c3 -18 -1 -23 -20 -22 -21 0 -21 1 -4 8 19 7 19 8 -2 13 -29 8 -28 30
1 26 14 -2 23 -11 25 -25z m-58 8 c0 -17 -18 -21 -24 -6 -3 9 0 15 9 15 8 0
15 -4 15 -9z m-1092 -23 c25 -25 2 -78 -33 -78 -20 0 -45 28 -40 45 3 8 7 22
10 30 5 18 46 20 63 3z m-1141 -4 c-3 -3 -12 -4 -19 -1 -8 3 -5 6 6 6 11 1 17
-2 13 -5z m1043 -23 c0 -6 -4 -12 -8 -15 -5 -3 -9 1 -9 9 0 8 4 15 9 15 4 0 8
-4 8 -9z m-187 -28 c5 -26 -6 -42 -27 -43 -6 0 -1 7 10 16 18 15 18 15 -8 11
-29 -4 -44 13 -25 32 20 20 44 12 50 -16z m-216 -19 c-3 -3 -12 -4 -19 -1 -8
3 -5 6 6 6 11 1 17 -2 13 -5z m1368 -4 c4 -6 -53 -10 -162 -11 -92 -1 -249 -2
-348 -3 -99 0 -187 1 -195 4 -8 3 143 7 335 10 193 3 353 6 357 8 4 1 10 -2
13 -8z m185 0 c0 -5 -14 -10 -31 -10 -17 0 -28 4 -24 10 3 6 17 10 31 10 13 0
24 -4 24 -10z m-1515 -122 c4 -49 11 -88 16 -88 15 0 10 -47 -6 -54 -12 -4
-13 -11 -5 -31 13 -35 13 -35 -10 -35 -17 0 -21 6 -21 38 0 160 -5 205 -25
213 -17 6 -17 8 -2 14 9 3 19 18 23 33 11 43 22 9 30 -90z m1064 87 c337 5
471 4 471 -4 0 -7 -46 -11 -137 -12 -76 -1 -129 -3 -118 -6 11 -3 24 -9 29
-14 16 -15 -38 -10 -80 7 -34 14 -63 15 -224 8 -102 -5 -198 -9 -215 -8 -16 1
-73 2 -125 4 -106 3 -112 4 -103 26 4 11 9 12 18 4 9 -8 156 -9 484 -5z
m-1442 -67 c-2 -13 -4 -3 -4 22 0 25 2 35 4 23 2 -13 2 -33 0 -45z m476 -2
c-1 -33 2 -54 8 -51 5 4 9 16 10 28 1 25 27 -96 28 -131 1 -13 -3 -20 -9 -17
-5 3 -10 26 -10 51 0 47 -20 68 -43 45 -21 -21 -26 -11 -21 52 6 76 11 90 27
84 8 -3 11 -23 10 -61z m147 19 c0 -34 -4 -45 -16 -45 -17 0 -38 -18 -47 -40
-3 -10 -6 -7 -6 8 -1 12 4 22 11 22 6 0 8 3 5 7 -4 3 2 12 13 20 27 19 25 51
-2 63 -21 8 -20 9 10 9 31 1 32 0 32 -44z m-845 27 c-27 -20 -10 -38 31 -33 6
1 19 -10 28 -24 9 -14 12 -25 7 -25 -5 0 -11 7 -14 15 -4 10 -26 15 -73 17
-64 3 -94 18 -60 31 11 4 13 1 9 -10 -4 -11 -2 -14 8 -11 8 2 15 14 17 26 3
16 10 22 30 22 15 0 23 -4 17 -8z m813 -19 c-4 -22 -22 -20 -26 1 -2 10 3 16
13 16 10 0 15 -7 13 -17z m-956 -65 c-2 -5 -8 -8 -13 -8 -11 0 -10 56 0 75 6
11 19 -55 13 -67z m1455 65 c-22 -4 -26 -7 -17 -18 14 -17 -7 -32 -22 -17 -17
17 9 42 41 41 l26 -2 -28 -4z m701 0 c-10 -3 -15 -10 -11 -19 7 -20 -21 -18
-40 4 -15 16 -13 17 26 18 23 0 34 -1 25 -3z m95 0 c2 -5 7 -37 10 -73 7 -69
6 -68 -31 25 -9 22 -21 43 -27 47 -5 4 2 8 17 8 15 0 29 -3 31 -7z m-569 -18
c-4 -8 -12 -15 -20 -15 -20 0 -17 18 4 23 9 3 18 5 19 6 1 0 0 -6 -3 -14z
m522 -13 c-9 -9 -37 8 -31 18 5 8 11 7 21 -1 8 -6 12 -14 10 -17z m-825 -5
c-13 -13 -26 -3 -16 12 3 6 11 8 17 5 6 -4 6 -10 -1 -17z m122 17 c11 -11 -3
-24 -18 -18 -8 4 -12 10 -9 15 6 11 18 12 27 3z m57 -4 c0 -5 -7 -10 -15 -10
-8 0 -15 5 -15 10 0 6 7 10 15 10 8 0 15 -4 15 -10z m60 0 c0 -5 -7 -10 -15
-10 -8 0 -15 5 -15 10 0 6 7 10 15 10 8 0 15 -4 15 -10z m120 0 c0 -5 -7 -10
-15 -10 -8 0 -15 5 -15 10 0 6 7 10 15 10 8 0 15 -4 15 -10z m60 0 c0 -5 -7
-10 -15 -10 -8 0 -15 5 -15 10 0 6 7 10 15 10 8 0 15 -4 15 -10z m60 0 c0 -5
-9 -10 -20 -10 -11 0 -20 5 -20 10 0 6 9 10 20 10 11 0 20 -4 20 -10z m50 0
c0 -5 -7 -10 -15 -10 -8 0 -15 5 -15 10 0 6 7 10 15 10 8 0 15 -4 15 -10z m60
0 c0 -5 -7 -10 -15 -10 -8 0 -15 5 -15 10 0 6 7 10 15 10 8 0 15 -4 15 -10z
m60 0 c0 -5 -7 -10 -15 -10 -8 0 -15 5 -15 10 0 6 7 10 15 10 8 0 15 -4 15
-10z m60 0 c0 -5 -7 -10 -15 -10 -8 0 -15 5 -15 10 0 6 7 10 15 10 8 0 15 -4
15 -10z m-895 -40 c0 -12 -20 -15 -112 -16 -157 -1 -146 17 17 29 74 6 95 3
95 -13z m52 5 c-4 -8 -2 -17 3 -20 4 -3 10 0 12 7 3 8 7 6 11 -5 4 -11 1 -17
-8 -17 -8 0 -15 -5 -15 -12 0 -9 -3 -9 -11 -1 -11 11 -5 63 7 63 3 0 4 -7 1
-15z m-878 -97 c0 -67 -3 -96 -9 -83 -5 11 -9 14 -9 8 -2 -27 -16 -11 -16 17
0 21 4 29 14 25 11 -4 12 9 9 65 -2 38 0 70 4 70 4 0 8 -46 7 -102z m173 53
c-3 -52 -16 -71 -47 -71 -25 0 -35 22 -35 83 l0 38 43 -3 42 -3 -3 -44z m844
34 c17 -13 17 -14 2 -15 -25 0 -22 -16 5 -25 19 -6 19 -8 5 -12 -22 -6 -24
-23 -3 -23 8 0 15 -7 15 -15 0 -8 -7 -15 -17 -15 -9 0 -13 -3 -9 -7 4 -5 13
-8 19 -8 5 0 12 -6 15 -12 2 -7 -4 -13 -13 -13 -9 0 -13 -5 -10 -10 4 -6 10
-8 15 -5 5 3 11 1 15 -4 7 -12 -26 -31 -54 -31 -14 0 -21 -6 -21 -19 0 -29
-52 -33 -78 -6 -20 21 -20 21 -1 33 10 7 32 12 49 12 l30 0 0 95 c0 52 4 95 8
95 5 0 17 -7 28 -15z m189 5 c3 -6 -1 -13 -10 -16 -19 -8 -30 0 -20 15 8 14
22 14 30 1z m63 -8 c3 -9 -2 -13 -14 -10 -9 1 -19 9 -22 16 -3 9 2 13 14 10 9
-1 19 -9 22 -16z m47 7 c10 -14 1 -21 -19 -13 -9 3 -13 10 -10 15 7 12 21 11
29 -2z m58 5 c11 -11 -3 -24 -18 -18 -8 4 -12 10 -9 15 6 11 18 12 27 3z m67
-9 c0 -8 -4 -15 -9 -15 -5 0 -14 7 -21 15 -10 13 -9 15 9 15 12 0 21 -6 21
-15z m60 7 c0 -14 -11 -21 -26 -15 -8 3 -11 9 -8 14 7 11 34 12 34 1z m54 -1
c3 -4 3 -11 0 -14 -8 -8 -34 3 -34 14 0 11 27 12 34 0z m60 0 c3 -4 3 -11 0
-14 -8 -8 -34 3 -34 14 0 11 27 12 34 0z m61 -1 c3 -5 -3 -10 -14 -10 -12 0
-21 5 -21 10 0 6 6 10 14 10 8 0 18 -4 21 -10z m55 1 c0 -18 -18 -21 -30 -6
-10 13 -9 15 9 15 11 0 21 -4 21 -9z m65 -1 c3 -5 -3 -10 -14 -10 -12 0 -21 5
-21 10 0 6 6 10 14 10 8 0 18 -4 21 -10z m55 0 c0 -5 -7 -10 -15 -10 -8 0 -15
5 -15 10 0 6 7 10 15 10 8 0 15 -4 15 -10z m-765 -10 c3 -5 -1 -10 -9 -10 -8
0 -18 5 -21 10 -3 6 1 10 9 10 8 0 18 -4 21 -10z m65 0 c0 -5 -6 -10 -14 -10
-8 0 -18 5 -21 10 -3 6 3 10 14 10 12 0 21 -4 21 -10z m-1320 -4 c0 -2 -13 -9
-29 -14 -22 -8 -34 -7 -48 3 -16 13 -13 14 30 15 26 0 47 -2 47 -4z m577 -18
c-3 -8 -6 -5 -6 6 -1 11 2 17 5 13 3 -3 4 -12 1 -19z m1461 -16 c6 -20 -27
-13 -38 8 -9 17 -8 19 12 11 12 -4 24 -13 26 -19z m-540 0 c2 -7 -3 -12 -12
-12 -9 0 -16 7 -16 16 0 17 22 14 28 -4z m60 0 c2 -7 -3 -12 -12 -12 -9 0 -16
7 -16 16 0 17 22 14 28 -4z m59 -8 c-3 -4 -14 -3 -24 0 -15 6 -15 8 -3 16 16
10 39 -4 27 -16z m71 9 c2 -8 -5 -13 -17 -13 -12 0 -21 6 -21 16 0 18 31 15
38 -3z m52 2 c0 -8 -6 -15 -14 -15 -8 0 -16 7 -20 15 -4 10 1 15 14 15 11 0
20 -7 20 -15z m58 -3 c3 -9 -2 -13 -14 -10 -9 1 -19 9 -22 16 -3 9 2 13 14 10
9 -1 19 -9 22 -16z m60 0 c3 -9 -2 -13 -14 -10 -9 1 -19 9 -22 16 -3 9 2 13
14 10 9 -1 19 -9 22 -16z m55 12 c11 -11 -3 -24 -18 -18 -8 4 -12 10 -9 15 6
11 18 12 27 3z m58 -9 c-1 -15 -24 -12 -29 3 -3 9 2 13 12 10 10 -1 17 -7 17
-13z m-2051 -5 c-20 -13 -43 -13 -35 0 3 6 16 10 28 10 18 0 19 -2 7 -10z
m1345 0 c3 -5 -3 -10 -14 -10 -12 0 -21 5 -21 10 0 6 6 10 14 10 8 0 18 -4 21
-10z m65 0 c0 -5 -9 -10 -20 -10 -11 0 -20 5 -20 10 0 6 9 10 20 10 11 0 20
-4 20 -10z m55 0 c3 -5 -3 -10 -14 -10 -12 0 -21 5 -21 10 0 6 6 10 14 10 8 0
18 -4 21 -10z m60 0 c3 -5 -3 -10 -14 -10 -12 0 -21 5 -21 10 0 6 6 10 14 10
8 0 18 -4 21 -10z m-728 -114 c-3 -45 -14 -103 -25 -131 -11 -27 -28 -85 -38
-129 -20 -85 -42 -109 -80 -88 -18 10 -19 5 -16 -116 3 -102 0 -131 -12 -147
-14 -18 -15 -11 -16 90 0 61 -3 167 -7 238 -5 112 -4 127 10 127 20 0 31 -50
22 -98 -5 -29 -4 -34 6 -25 19 18 79 188 69 191 -6 2 -10 8 -10 13 0 4 6 6 14
3 9 -3 17 9 26 40 13 49 35 65 24 19 -6 -24 -4 -26 7 -15 10 9 13 33 11 80 -2
54 0 63 9 48 8 -12 10 -47 6 -100z m73 78 c0 -45 24 -42 28 4 3 28 7 32 32 32
34 0 70 -34 70 -66 0 -31 26 -54 59 -54 38 0 51 17 51 67 0 40 2 43 28 43 21
0 28 -5 28 -20 0 -11 -4 -20 -8 -20 -4 0 -8 7 -8 16 0 14 -3 14 -15 4 -11 -9
-14 -22 -10 -40 4 -19 1 -33 -10 -44 -12 -11 -15 -25 -10 -46 l7 -30 -102 0
-102 0 7 46 7 47 -41 -7 c-32 -5 -39 -3 -35 8 3 8 0 13 -8 13 -7 -1 -13 3 -13
8 0 6 6 9 12 9 9 -1 11 9 7 32 -4 26 -2 34 10 34 12 0 16 -10 16 -36z m-140
16 c0 -5 -2 -10 -4 -10 -3 0 -8 5 -11 10 -3 6 -1 10 4 10 6 0 11 -4 11 -10z
m311 -2 c-23 -6 -37 -6 -44 1 -8 8 2 11 34 10 l44 -1 -34 -10z m847 -16 c3 -9
-2 -13 -14 -10 -9 1 -19 9 -22 16 -3 9 2 13 14 10 9 -1 19 -9 22 -16z m59 -8
c-9 -9 -28 6 -21 18 4 6 10 6 17 -1 6 -6 8 -13 4 -17z m60 0 c-9 -9 -28 6 -21
18 4 6 10 6 17 -1 6 -6 8 -13 4 -17z m63 5 c0 -5 -7 -9 -15 -9 -15 0 -20 12
-9 23 8 8 24 -1 24 -14z m65 12 c10 -18 -17 -23 -33 -7 -15 15 -15 16 5 16 12
0 24 -4 28 -9z m-1406 -31 c6 0 11 -4 11 -8 0 -9 -67 -8 -77 1 -3 4 1 7 10 7
10 0 17 8 17 18 1 16 1 16 14 0 7 -10 18 -18 25 -18z m621 14 c0 -9 -5 -14
-12 -12 -18 6 -21 28 -4 28 9 0 16 -7 16 -16z m64 7 c3 -4 3 -11 0 -14 -8 -8
-34 3 -34 14 0 11 27 12 34 0z m61 -1 c3 -5 -3 -10 -14 -10 -12 0 -21 5 -21
10 0 6 6 10 14 10 8 0 18 -4 21 -10z m60 0 c3 -5 -3 -10 -14 -10 -12 0 -21 5
-21 10 0 6 6 10 14 10 8 0 18 -4 21 -10z m60 0 c3 -5 -3 -10 -14 -10 -12 0
-21 5 -21 10 0 6 6 10 14 10 8 0 18 -4 21 -10z m55 0 c0 -5 -7 -10 -15 -10 -8
0 -15 5 -15 10 0 6 7 10 15 10 8 0 15 -4 15 -10z m65 0 c3 -5 -3 -10 -14 -10
-12 0 -21 5 -21 10 0 6 6 10 14 10 8 0 18 -4 21 -10z m65 0 c0 -5 -9 -10 -20
-10 -11 0 -20 5 -20 10 0 6 9 10 20 10 11 0 20 -4 20 -10z m55 0 c3 -5 -3 -10
-14 -10 -12 0 -21 5 -21 10 0 6 6 10 14 10 8 0 18 -4 21 -10z m-746 -22 c10
-27 6 -38 -17 -38 -12 0 -13 3 -4 12 19 19 14 36 -10 41 l-23 4 23 2 c15 1 25
-6 31 -21z m121 18 c0 -11 -19 -15 -25 -6 -3 5 1 10 9 10 9 0 16 -2 16 -4z
m331 -39 c-1 -4 -3 -7 -6 -7 -3 0 -9 0 -14 0 -5 0 -11 7 -14 14 -5 11 -1 13
14 7 11 -4 20 -10 20 -14z m249 2 c0 -14 -37 -10 -43 4 -4 10 2 13 19 9 13 -2
24 -8 24 -13z m120 0 c0 -14 -37 -10 -43 4 -4 10 2 13 19 9 13 -2 24 -8 24
-13z m170 11 c8 -5 11 -12 8 -16 -10 -9 -38 3 -38 16 0 12 10 13 30 0z m65 -1
c10 -15 -1 -23 -20 -15 -9 3 -13 10 -10 16 8 13 22 13 30 -1z m-940 -9 c-3 -5
-15 -10 -25 -10 -10 0 -22 5 -25 10 -4 6 7 10 25 10 18 0 29 -4 25 -10z m152
-16 c-9 -9 -28 6 -21 18 4 6 10 6 17 -1 6 -6 8 -13 4 -17z m62 17 c9 -6 10
-11 2 -15 -13 -8 -31 1 -31 15 0 11 11 11 29 0z m62 -6 c-1 -15 -24 -12 -29 3
-3 9 2 13 12 10 10 -1 17 -7 17 -13z m120 0 c-1 -15 -24 -12 -29 3 -3 9 2 13
12 10 10 -1 17 -7 17 -13z m64 5 c3 -5 -3 -10 -14 -10 -12 0 -21 5 -21 10 0 6
6 10 14 10 8 0 18 -4 21 -10z m60 0 c3 -5 -3 -10 -14 -10 -12 0 -21 5 -21 10
0 6 6 10 14 10 8 0 18 -4 21 -10z m125 0 c0 -5 -9 -10 -20 -10 -11 0 -20 5
-20 10 0 6 9 10 20 10 11 0 20 -4 20 -10z m115 0 c3 -5 -1 -10 -9 -10 -8 0
-18 5 -21 10 -3 6 1 10 9 10 8 0 18 -4 21 -10z m65 0 c0 -5 -6 -10 -14 -10 -8
0 -18 5 -21 10 -3 6 3 10 14 10 12 0 21 -4 21 -10z m-1993 -14 c9 -9 -48 -5
-77 4 -19 7 -13 8 23 5 27 -2 51 -6 54 -9z m2058 -17 c10 -15 -1 -23 -20 -15
-9 3 -13 10 -10 16 8 13 22 13 30 -1z m66 -4 c-1 -15 -24 -12 -29 3 -3 9 2 13
12 10 10 -1 17 -7 17 -13z m-2158 -2 c-13 -2 -33 -2 -45 0 -13 2 -3 4 22 4 25
0 35 -2 23 -4z m1367 -14 c0 -5 -7 -9 -15 -9 -15 0 -20 12 -9 23 8 8 24 -1 24
-14z m60 12 c0 -14 -18 -23 -30 -16 -6 4 -8 11 -5 16 8 12 35 12 35 0z m65 -1
c3 -5 -3 -10 -14 -10 -12 0 -21 5 -21 10 0 6 6 10 14 10 8 0 18 -4 21 -10z
m65 0 c0 -5 -9 -10 -20 -10 -11 0 -20 5 -20 10 0 6 9 10 20 10 11 0 20 -4 20
-10z m51 -5 c-1 -15 -24 -12 -29 3 -3 9 2 13 12 10 10 -1 17 -7 17 -13z m129
5 c0 -5 -9 -10 -20 -10 -11 0 -20 5 -20 10 0 6 9 10 20 10 11 0 20 -4 20 -10z
m120 0 c0 -5 -6 -10 -14 -10 -8 0 -18 5 -21 10 -3 6 3 10 14 10 12 0 21 -4 21
-10z m60 0 c0 -5 -9 -10 -20 -10 -11 0 -20 5 -20 10 0 6 9 10 20 10 11 0 20
-4 20 -10z m60 0 c0 -5 -7 -10 -15 -10 -8 0 -15 5 -15 10 0 6 7 10 15 10 8 0
15 -4 15 -10z m60 0 c0 -5 -7 -10 -15 -10 -8 0 -15 5 -15 10 0 6 7 10 15 10 8
0 15 -4 15 -10z m-1380 -45 c0 -8 -9 -15 -20 -15 -11 0 -20 7 -20 15 0 8 9 15
20 15 11 0 20 -7 20 -15z m157 -7 c-3 -8 -6 -5 -6 6 -1 11 2 17 5 13 3 -3 4
-12 1 -19z m-357 -34 c0 -35 0 -35 -42 -32 -40 3 -43 5 -46 35 -3 30 -1 32 35
35 50 4 53 3 53 -38z m417 30 c-3 -3 -12 -4 -19 -1 -8 3 -5 6 6 6 11 1 17 -2
13 -5z m-217 -39 c0 -8 -9 -15 -20 -15 -11 0 -20 7 -20 15 0 8 9 15 20 15 11
0 20 -7 20 -15z m307 9 c-3 -3 -12 -4 -19 -1 -8 3 -5 6 6 6 11 1 17 -2 13 -5z
m451 -1 c-10 -2 -26 -2 -35 0 -10 3 -2 5 17 5 19 0 27 -2 18 -5z m77 -3 c-4
-6 40 -8 127 -6 127 5 491 9 532 7 13 -1 17 -4 10 -11 -10 -10 -902 -16 -912
-6 -3 4 47 6 111 6 71 0 117 4 117 10 0 6 5 10 11 10 5 0 7 -4 4 -10z m-693
-22 c-7 -7 -12 -8 -12 -2 0 6 3 14 7 17 3 4 9 5 12 2 2 -3 -1 -11 -7 -17z
m128 8 c0 -2 -7 -6 -15 -10 -8 -3 -15 -1 -15 4 0 6 7 10 15 10 8 0 15 -2 15
-4z m95 -16 c3 -6 -1 -7 -9 -4 -18 7 -21 14 -7 14 6 0 13 -4 16 -10z m250 -10
c13 -6 15 -9 5 -9 -8 0 -22 4 -30 9 -18 12 -2 12 25 0z m-1082 -73 c-1 -37 -7
-75 -13 -84 -11 -17 -11 -17 -6 0 8 24 -11 60 -27 50 -20 -12 -46 -10 -51 4
-9 22 16 52 44 55 17 2 26 10 28 26 2 13 9 21 15 19 8 -2 11 -27 10 -70z m66
-154 c-1 -120 -4 -204 -6 -188 -6 41 -22 59 -39 44 -11 -9 -14 -7 -14 9 0 13
9 22 26 26 l25 7 -1 132 c-2 160 -1 187 5 187 3 0 4 -98 4 -217z m-419 197 c0
-5 -4 -10 -10 -10 -5 0 -10 5 -10 10 0 6 5 10 10 10 6 0 10 -4 10 -10z m1213
-7 c-7 -2 -19 -2 -25 0 -7 3 -2 5 12 5 14 0 19 -2 13 -5z m-118 -20 c0 -6 3
-14 7 -18 13 -13 -18 -33 -43 -28 -13 2 -50 0 -81 -5 -55 -9 -58 -8 -58 12 0
12 4 26 8 33 13 21 167 27 167 6z m500 -78 c0 -25 2 -45 5 -45 3 0 4 -120 4
-268 -2 -345 -2 -351 -14 -332 -5 8 -9 78 -9 155 0 77 0 160 -1 185 l0 46 -57
0 c-245 1 -263 3 -263 24 0 19 7 20 154 20 114 0 156 -3 159 -12 6 -15 10 85
7 195 -1 42 2 77 7 77 5 0 9 -20 8 -45z m-960 5 c-3 -5 -18 -9 -33 -9 l-27 1
30 8 c17 4 31 8 33 9 2 0 0 -3 -3 -9z m410 -10 c3 -5 -3 -10 -15 -10 -12 0
-18 -4 -15 -10 3 -5 1 -10 -4 -10 -14 0 -14 13 1 28 15 15 25 15 33 2z m-918
-7 c-20 -3 -27 -9 -23 -19 3 -8 1 -14 -4 -14 -6 0 -10 9 -10 20 0 16 6 20 33
19 31 -2 31 -2 4 -6z m434 -15 c0 -7 2 -23 5 -35 3 -16 -1 -23 -12 -23 -8 0
-12 5 -9 10 3 6 -1 10 -9 10 -9 0 -16 5 -16 11 0 5 4 8 9 4 5 -3 12 -1 16 5 3
5 1 10 -5 10 -6 0 -8 5 -5 10 9 14 25 12 26 -2z m109 -98 c0 -60 -2 -110 -4
-110 -2 0 -10 -2 -18 -5 -17 -7 -21 206 -4 217 23 16 26 5 26 -102z m425 100
c-14 -23 -43 -30 -56 -13 -13 15 -11 16 14 9 16 -4 27 -2 27 4 0 5 5 10 11 10
5 0 7 -4 4 -10z m-958 -14 c-3 -8 -1 -17 6 -20 7 -3 -12 -5 -41 -3 -42 2 -52
-1 -50 -13 2 -10 20 -17 53 -21 35 -3 45 -7 33 -13 -9 -4 -39 -5 -67 -2 -30 3
-51 1 -51 -4 0 -6 29 -10 65 -10 37 0 65 -4 65 -10 0 -5 -12 -10 -26 -10 -15
0 -23 -4 -19 -10 4 -6 14 -9 23 -8 14 3 18 -7 20 -55 l3 -58 -78 3 -78 3 -2
77 c-1 54 4 86 15 110 15 30 21 33 61 33 26 0 46 5 48 13 3 6 9 12 15 12 6 0
8 -6 5 -14z m460 8 c-3 -3 -12 -4 -19 -1 -8 3 -5 6 6 6 11 1 17 -2 13 -5z
m419 -14 c13 0 24 -5 24 -11 0 -7 -14 -10 -35 -7 -24 3 -35 0 -35 -9 0 -9 18
-13 65 -13 37 0 65 -4 65 -10 0 -6 -32 -10 -75 -10 l-75 0 0 30 c0 28 31 60
38 39 2 -5 15 -9 28 -9z m-411 -10 c3 -5 -1 -10 -10 -10 -9 0 -13 5 -10 10 3
6 8 10 10 10 2 0 7 -4 10 -10z m-278 -6 c-3 -3 -12 -4 -19 -1 -8 3 -5 6 6 6
11 1 17 -2 13 -5z m758 -4 c-3 -5 -10 -10 -16 -10 -5 0 -9 5 -9 10 0 6 7 10
16 10 8 0 12 -4 9 -10z m-336 -239 c0 -156 5 -209 18 -173 8 20 22 13 16 -8
-4 -16 -11 -19 -27 -14 -11 4 -23 11 -25 16 -1 5 -9 1 -17 -9 -13 -17 -13 -17
-14 0 0 10 7 20 15 24 13 5 16 33 15 197 -1 220 -1 223 10 176 5 -19 9 -113 9
-209z m817 207 c3 -4 -28 -7 -68 -7 -55 1 -66 3 -43 9 38 10 105 9 111 -2z
m-976 -8 c-20 -13 -57 -13 -65 0 -4 6 11 10 37 10 31 0 39 -3 28 -10z m-240
-20 c0 -5 -4 -10 -10 -10 -5 0 -10 5 -10 10 0 6 5 10 10 10 6 0 10 -4 10 -10z
m563 -7 c-7 -2 -19 -2 -25 0 -7 3 -2 5 12 5 14 0 19 -2 13 -5z m192 -13 c-3
-17 0 -19 21 -14 14 4 24 2 24 -5 0 -6 -12 -11 -26 -11 -25 0 -26 -2 -22 -44
l5 -45 -86 -3 c-82 -3 -86 -2 -86 18 1 11 5 26 9 32 4 7 7 27 6 45 -1 17 -2
35 -1 40 1 4 37 7 80 7 75 0 80 -1 76 -20z m465 -21 c0 -36 -2 -40 -22 -37
-17 2 -23 10 -23 28 0 14 -4 31 -8 38 -6 9 0 12 22 12 30 0 31 -2 31 -41z
m-1016 -11 c6 -28 16 -176 16 -235 0 -24 5 -43 10 -43 6 0 10 10 10 23 0 17 2
19 9 8 5 -8 7 -20 5 -26 -6 -15 -49 -35 -72 -34 -9 0 -12 2 -7 5 6 2 9 65 8
164 -1 94 2 160 7 160 5 0 12 -10 14 -22z m371 12 c17 -7 14 -9 -13 -9 -20 -1
-31 3 -27 9 7 12 13 12 40 0z m15 -34 c0 -3 -4 -8 -10 -11 -5 -3 -10 -1 -10 4
0 6 5 11 10 11 6 0 10 -2 10 -4z m300 -13 c0 -10 -20 -40 -20 -31 0 3 -3 13
-6 22 -4 11 -1 16 10 16 9 0 16 -3 16 -7z m510 -48 c0 -8 -4 -15 -8 -15 -5 0
-9 7 -9 15 0 8 4 15 9 15 4 0 8 -7 8 -15z m-1276 -32 c2 -11 11 -18 24 -17 12
0 19 -3 16 -8 -3 -4 -24 -7 -47 -7 -23 1 -34 3 -24 6 10 3 17 14 17 30 0 29
10 26 14 -4z m184 18 c-2 -5 8 -18 21 -30 l24 -21 -32 0 c-21 0 -30 4 -25 11
3 6 0 15 -7 20 -12 8 -12 11 1 19 19 12 21 12 18 1z m1059 -7 c-3 -3 -12 -4
-19 -1 -8 3 -5 6 6 6 11 1 17 -2 13 -5z m-1386 -27 c-10 -9 -11 -8 -5 6 3 10
9 15 12 12 3 -3 0 -11 -7 -18z m1057 16 c-16 -2 -40 -2 -55 0 -16 2 -3 4 27 4
30 0 43 -2 28 -4z m115 0 c-7 -2 -19 -2 -25 0 -7 3 -2 5 12 5 14 0 19 -2 13
-5z m67 -58 c0 -37 -4 -65 -10 -65 -5 0 -10 3 -11 8 0 4 -2 14 -4 22 -2 8 -6
34 -10 58 -7 38 -6 42 14 42 19 0 21 -5 21 -65z m-1293 49 c-3 -3 -12 -4 -19
-1 -8 3 -5 6 6 6 11 1 17 -2 13 -5z m-100 -36 c-3 -8 -6 -5 -6 6 -1 11 2 17 5
13 3 -3 4 -12 1 -19z m770 16 c-3 -3 -12 -4 -19 -1 -8 3 -5 6 6 6 11 1 17 -2
13 -5z m576 -126 c7 -52 -2 -60 -38 -31 -20 15 -19 15 5 10 22 -5 23 -5 8 7
-19 14 -25 32 -8 21 7 -4 8 8 4 37 -4 24 -11 45 -16 46 -5 2 -3 11 4 19 11 14
14 10 24 -23 6 -21 14 -60 17 -86z m-1060 105 c-7 -2 -21 -2 -30 0 -10 3 -4 5
12 5 17 0 24 -2 18 -5z m210 0 c-7 -2 -21 -2 -30 0 -10 3 -4 5 12 5 17 0 24
-2 18 -5z m-380 -10 c-7 -2 -19 -2 -25 0 -7 3 -2 5 12 5 14 0 19 -2 13 -5z
m567 -80 c-2 -107 -3 -103 23 -104 l22 0 -22 -9 c-20 -8 -23 -16 -23 -69 0
-48 3 -60 18 -64 13 -4 11 -5 -5 -6 -18 -1 -23 -7 -23 -30 0 -17 -6 -33 -12
-38 -9 -5 -1 -10 22 -14 26 -5 16 -7 -37 -8 -39 0 -75 3 -78 9 -4 6 5 7 23 4
22 -4 35 -1 49 13 18 18 19 33 16 193 -3 159 2 200 24 200 2 0 4 -35 3 -77z
m863 70 c-7 -2 -19 -2 -25 0 -7 3 -2 5 12 5 14 0 19 -2 13 -5z m-1383 -10 c0
-14 -19 -38 -25 -32 -8 8 5 39 16 39 5 0 9 -3 9 -7z m100 -68 c0 -43 -4 -75
-10 -75 -6 0 -10 32 -10 75 0 43 4 75 10 75 6 0 10 -32 10 -75z m40 65 c0 -5
-2 -10 -4 -10 -3 0 -8 5 -11 10 -3 6 -1 10 4 10 6 0 11 -4 11 -10z m200 0 c0
-5 -7 -10 -15 -10 -8 0 -15 5 -15 10 0 6 7 10 15 10 8 0 15 -4 15 -10z m353 3
c-7 -2 -21 -2 -30 0 -10 3 -4 5 12 5 17 0 24 -2 18 -5z m-53 -13 c0 -5 -19 -9
-42 -9 l-43 2 40 7 c22 4 41 8 43 9 1 0 2 -3 2 -9z m-315 -20 c-3 -6 4 -14 16
-18 21 -8 21 -9 -12 -32 -19 -13 -46 -35 -61 -48 -16 -14 -28 -21 -28 -15 0
15 23 38 60 60 38 22 39 35 3 27 l-28 -5 24 20 c25 23 36 27 26 11z m232 -6
c-3 -3 -12 -4 -19 -1 -8 3 -5 6 6 6 11 1 17 -2 13 -5z m563 -15 c0 -6 -4 -7
-10 -4 -5 3 -10 11 -10 16 0 6 5 7 10 4 6 -3 10 -11 10 -16z m110 -3 c0 -3 -4
-8 -10 -11 -5 -3 -10 -1 -10 4 0 6 5 11 10 11 6 0 10 -2 10 -4z m-1243 -12
c-3 -3 -12 -4 -19 -1 -8 3 -5 6 6 6 11 1 17 -2 13 -5z m648 -14 c3 -5 -1 -10
-9 -10 -9 0 -16 5 -16 10 0 6 4 10 9 10 6 0 13 -4 16 -10z m192 4 c-3 -3 -12
-4 -19 -1 -8 3 -5 6 6 6 11 1 17 -2 13 -5z m-827 -11 c0 -5 -5 -15 -10 -23 -8
-13 -10 -13 -10 2 0 14 -12 18 -57 21 l-58 3 68 2 c37 1 67 -1 67 -5z m1143
-33 c31 -16 64 -30 73 -30 12 0 15 -9 13 -42 -1 -24 -5 -49 -7 -55 -5 -14
-103 -17 -137 -4 -16 7 -14 9 14 14 19 4 43 7 55 7 12 0 31 7 42 15 17 13 15
14 -34 15 -33 0 -51 -4 -47 -10 8 -13 -51 -13 -76 0 -14 8 -37 6 -84 -5 -35
-9 -69 -14 -75 -10 -5 3 -10 1 -10 -4 0 -6 6 -11 13 -11 8 0 7 -3 -3 -10 -8
-5 -16 -7 -18 -5 -2 2 -6 40 -8 84 l-4 81 119 0 c112 0 121 -2 174 -30z
m-1214 17 c-2 -1 -11 -8 -20 -15 -13 -10 -19 -9 -29 3 -11 13 -8 15 20 15 19
0 31 -1 29 -3z m550 -124 c-2 -93 -6 -121 -18 -130 -11 -9 -64 -12 -169 -13
-145 0 -154 1 -159 20 -3 11 -8 18 -12 16 -4 -3 -22 -1 -41 4 -31 7 -28 8 27
9 40 1 67 6 77 16 18 18 166 22 166 4 0 -6 -9 -8 -21 -4 -11 4 -37 3 -57 -1
l-37 -8 55 -6 c70 -6 142 -1 134 11 -3 5 -20 10 -37 11 -21 1 -12 4 23 8 34 4
43 7 24 8 -18 1 -34 9 -38 17 -3 8 -14 15 -25 15 -32 0 -34 19 -4 25 15 4 42
12 58 20 l30 14 -45 0 c-26 1 -50 -3 -55 -8 -6 -5 -56 -11 -113 -13 l-103 -3
5 25 c4 14 8 32 10 39 1 8 9 17 16 19 9 3 11 -1 5 -14 -4 -11 -8 -26 -10 -34
-1 -9 0 -9 2 -2 4 10 8 10 18 2 9 -8 37 -10 80 -6 36 3 94 9 130 12 38 3 65
10 66 17 1 7 2 17 4 22 1 6 3 13 3 18 1 4 5 7 8 7 3 0 4 -53 3 -117z m-492 67
c1 -14 0 -19 -3 -12 -3 6 -24 13 -47 14 l-42 1 40 5 c37 4 38 5 15 13 -24 8
-23 8 5 6 24 -2 30 -7 32 -27z m238 20 c3 -5 -3 -10 -14 -10 -12 0 -21 5 -21
10 0 6 6 10 14 10 8 0 18 -4 21 -10z m-155 -5 c0 -3 -5 -14 -12 -24 -19 -31
-4 -52 34 -45 l33 6 -40 -21 c-21 -12 -40 -21 -40 -21 0 0 -2 12 -3 27 -1 14
-5 29 -8 32 -4 3 -4 -13 -1 -36 3 -25 1 -43 -5 -43 -5 0 -6 -5 -2 -11 5 -8 9
-8 14 1 5 9 20 10 45 6 46 -9 43 -12 -21 -20 l-52 -6 3 77 c2 43 4 79 4 81 2
4 51 2 51 -3z m70 -2 c0 -5 -5 -15 -10 -23 -8 -12 -10 -11 -10 8 0 12 5 22 10
22 6 0 10 -3 10 -7z m-417 -10 c-7 -2 -19 -2 -25 0 -7 3 -2 5 12 5 14 0 19 -2
13 -5z m1050 -10 c-7 -2 -21 -2 -30 0 -10 3 -4 5 12 5 17 0 24 -2 18 -5z
m-781 -73 c-2 -27 -8 -50 -14 -50 -5 0 -7 4 -4 8 3 5 -8 9 -25 10 -46 1 -48
12 -3 13 l39 2 -40 7 -40 7 38 2 c32 1 37 4 37 26 0 14 3 25 8 25 4 0 5 -22 4
-50z m731 43 c-7 -2 -19 -2 -25 0 -7 3 -2 5 12 5 14 0 19 -2 13 -5z m-1003
-13 c0 -5 -5 -10 -11 -10 -5 0 -7 5 -4 10 3 6 8 10 11 10 2 0 4 -4 4 -10z m70
0 c-20 -13 -40 -13 -40 0 0 6 12 10 28 10 21 0 24 -2 12 -10z m1988 3 c-10 -2
-28 -2 -40 0 -13 2 -5 4 17 4 22 1 32 -1 23 -4z m-1120 -10 c-10 -2 -26 -2
-35 0 -10 3 -2 5 17 5 19 0 27 -2 18 -5z m499 1 c-3 -3 -12 -4 -19 -1 -8 3 -5
6 6 6 11 1 17 -2 13 -5z m-949 -21 c-10 -2 -26 -2 -35 0 -10 3 -2 5 17 5 19 0
27 -2 18 -5z m560 0 c-16 -2 -40 -2 -55 0 -16 2 -3 4 27 4 30 0 43 -2 28 -4z
m625 0 c-7 -2 -19 -2 -25 0 -7 3 -2 5 12 5 14 0 19 -2 13 -5z m-1196 -19 c-3
-3 -12 -4 -19 -1 -8 3 -5 6 6 6 11 1 17 -2 13 -5z m173 -14 c16 -5 -9 -8 -70
-8 -63 -1 -90 2 -80 8 18 11 114 11 150 0z m848 -45 l-3 -40 -123 -3 -123 -3
21 21 c11 11 25 20 30 20 6 0 10 4 10 9 0 8 31 18 90 28 13 2 27 6 29 9 3 2
20 3 38 2 33 -2 34 -3 31 -43z m609 39 c-3 -3 -12 -4 -19 -1 -8 3 -5 6 6 6 11
1 17 -2 13 -5z m-1124 -11 c-7 -2 -21 -2 -30 0 -10 3 -4 5 12 5 17 0 24 -2 18
-5z m547 -78 c-8 -10 -7 -14 7 -18 10 -3 3 -5 -16 -6 -31 -1 -33 1 -17 12 9 7
18 26 20 42 6 48 9 52 13 17 3 -18 -1 -39 -7 -47z m-447 58 c-7 -2 -19 -2 -25
0 -7 3 -2 5 12 5 14 0 19 -2 13 -5z m-779 -18 c3 -8 1 -15 -4 -15 -6 0 -10 7
-10 15 0 8 2 15 4 15 2 0 6 -7 10 -15z m-101 -2 c-23 -2 -64 -2 -90 0 -26 2
-7 3 42 3 50 0 71 -1 48 -3z m880 -20 c-13 -2 -33 -2 -45 0 -13 2 -3 4 22 4
25 0 35 -2 23 -4z m-996 -9 c-3 -3 -12 -4 -19 -1 -8 3 -5 6 6 6 11 1 17 -2 13
-5z m128 -4 c4 -6 -14 -9 -47 -8 l-53 1 45 7 c25 4 46 8 47 8 1 1 5 -2 8 -8z
m105 0 c0 -5 -2 -10 -4 -10 -3 0 -8 5 -11 10 -3 6 -1 10 4 10 6 0 11 -4 11
-10z m-415 -10 c3 -5 2 -10 -2 -10 -5 0 -9 -13 -8 -30 0 -16 4 -30 10 -30 5 0
3 -5 -5 -10 -12 -8 -12 -10 5 -11 l20 0 -20 -9 c-16 -7 -12 -9 20 -11 l40 -2
-35 -7 c-20 -4 50 -8 170 -10 190 -3 198 -3 110 -11 -52 -5 -101 -10 -109 -11
-8 -2 177 -3 410 -3 233 0 399 1 369 3 -30 1 -62 5 -70 9 -8 3 -31 5 -50 5
l-35 -1 30 9 c22 6 25 8 10 10 -44 5 43 18 120 17 l80 0 -65 -7 c-59 -6 -54
-7 50 -9 75 -2 106 -6 90 -11 -32 -10 107 -15 375 -12 110 1 225 2 257 2 53 0
56 1 51 23 -4 17 0 14 20 -13 15 -19 31 -41 38 -48 6 -7 9 -15 7 -18 -7 -7
-1948 -7 -1955 0 -4 4 0 19 10 34 13 23 37 128 37 165 0 10 18 9 25 -3z m468
3 c-7 -2 -19 -2 -25 0 -7 3 -2 5 12 5 14 0 19 -2 13 -5z m287 -23 c0 -5 -2
-10 -4 -10 -3 0 -8 5 -11 10 -3 6 -1 10 4 10 6 0 11 -4 11 -10z m647 3 c-20
-2 -52 -2 -70 0 -17 2 0 4 38 4 39 0 53 -2 32 -4z m156 0 c-13 -2 -35 -2 -50
0 -16 2 -5 4 22 4 28 0 40 -2 28 -4z m-1399 -19 c6 -15 4 -15 -11 -3 -10 7
-20 15 -22 16 -2 2 3 3 11 3 9 0 19 -7 22 -16z m173 10 c-3 -3 -12 -4 -19 -1
-8 3 -5 6 6 6 11 1 17 -2 13 -5z m291 -1 c-43 -2 -113 -2 -155 0 -43 1 -8 3
77 3 85 0 120 -2 78 -3z m690 -10 c-15 -2 -42 -2 -60 0 -18 2 -6 4 27 4 33 0
48 -2 33 -4z m155 0 c-13 -2 -33 -2 -45 0 -13 2 -3 4 22 4 25 0 35 -2 23 -4z
m-683 -22 c78 -6 90 -9 45 -10 -33 0 -76 -5 -95 -10 -72 -18 -109 -21 -104 -6
4 8 25 16 52 18 53 4 -184 0 -323 -6 -74 -4 -79 -3 -25 3 36 3 58 8 50 10 -8
2 12 6 45 10 61 7 168 4 355 -9z m415 9 c3 -5 1 -10 -4 -10 -6 0 -11 -4 -11
-10 0 -5 57 -11 138 -13 l137 -3 -147 -2 c-90 -1 -149 2 -153 8 -3 6 -39 11
-78 11 -56 1 -64 3 -37 9 l35 7 -35 5 c-19 2 6 6 57 6 52 1 94 -2 98 -8z m608
-15 c4 -9 -1 -11 -14 -8 -26 7 -32 19 -9 20 10 1 21 -4 23 -12z m-320 -2 c-40
-2 -106 -2 -145 0 -40 1 -8 3 72 3 80 0 112 -2 73 -3z m383 -14 c19 -22 19
-22 -3 -8 -13 8 -23 17 -23 21 0 12 6 9 26 -13z m-1379 5 c-3 -3 -12 -4 -19
-1 -8 3 -5 6 6 6 11 1 17 -2 13 -5z m-274 -11 c-13 -2 -33 -2 -45 0 -13 2 -3
4 22 4 25 0 35 -2 23 -4z m934 1 c-3 -3 -12 -4 -19 -1 -8 3 -5 6 6 6 11 1 17
-2 13 -5z m-788 -30 c2 -2 -65 -3 -150 -2 -126 1 -140 3 -79 8 70 6 220 2 229
-6z m728 10 c-3 -3 -12 -4 -19 -1 -8 3 -5 6 6 6 11 1 17 -2 13 -5z m516 -1
c-29 -2 -77 -2 -105 0 -29 2 -6 3 52 3 58 0 81 -1 53 -3z m100 0 c-7 -2 -21
-2 -30 0 -10 3 -4 5 12 5 17 0 24 -2 18 -5z m-960 -10 c-51 -2 -136 -2 -190 0
-54 1 -12 3 92 3 105 0 149 -2 98 -3z m1144 -15 c-3 -8 -6 -5 -6 6 -1 11 2 17
5 13 3 -3 4 -12 1 -19z m-139 5 c-10 -2 -26 -2 -35 0 -10 3 -2 5 17 5 19 0 27
-2 18 -5z m-1080 -10 c-26 -2 -71 -2 -100 0 -29 2 -8 3 47 3 55 0 79 -1 53 -3z"/>
<path d="M2120 4610 c0 -5 4 -10 9 -10 6 0 13 5 16 10 3 6 -1 10 -9 10 -9 0
-16 -4 -16 -10z"/>
<path d="M3388 4443 c12 -2 30 -2 40 0 9 3 -1 5 -23 4 -22 0 -30 -2 -17 -4z"/>
<path d="M2975 2900 c-3 -5 -1 -10 4 -10 6 0 11 5 11 10 0 6 -2 10 -4 10 -3 0
-8 -4 -11 -10z"/>
<path d="M2146 2941 c-7 -10 0 -15 17 -12 4 0 7 -3 7 -9 0 -5 -6 -10 -14 -10
-8 0 -18 5 -21 10 -10 17 -131 12 -145 -5 -20 -24 -2 -31 31 -12 30 16 79 15
79 -3 0 -5 24 -33 53 -62 39 -40 55 -65 65 -103 7 -27 16 -44 20 -38 4 6 16
13 27 16 19 4 19 5 -1 6 -12 0 -24 9 -26 19 -4 14 3 17 44 20 33 2 47 -1 43
-8 -3 -6 -11 -8 -16 -5 -5 4 -9 1 -9 -4 0 -16 36 -13 50 4 15 18 5 35 -20 35
-10 0 -22 5 -25 10 -4 6 5 10 19 10 30 0 32 7 11 34 -16 21 -19 37 -7 35 22
-4 33 3 30 18 -5 28 -45 43 -117 43 -37 0 -72 5 -78 11 -8 8 -13 8 -17 0z
m142 -38 c-21 -2 -55 -2 -75 0 -21 2 -4 4 37 4 41 0 58 -2 38 -4z"/>
<path d="M1960 2930 c0 -5 7 -10 16 -10 8 0 12 5 9 10 -3 6 -10 10 -16 10 -5
0 -9 -4 -9 -10z"/>
<path d="M2318 2713 c7 -3 16 -2 19 1 4 3 -2 6 -13 5 -11 0 -14 -3 -6 -6z"/>
<path d="M2478 2703 c7 -3 16 -2 19 1 4 3 -2 6 -13 5 -11 0 -14 -3 -6 -6z"/>
<path d="M2288 2693 c7 -3 16 -2 19 1 4 3 -2 6 -13 5 -11 0 -14 -3 -6 -6z"/>
<path d="M3420 2620 c0 -5 5 -10 10 -10 6 0 10 5 10 10 0 6 -4 10 -10 10 -5 0
-10 -4 -10 -10z"/>
<path d="M2027 2630 c3 -11 7 -20 9 -20 2 0 4 9 4 20 0 11 -4 20 -9 20 -5 0
-7 -9 -4 -20z"/>
<path d="M2070 2646 c0 -9 39 -13 51 -5 10 6 4 9 -18 9 -18 0 -33 -2 -33 -4z"/>
<path d="M3305 2470 c-5 -15 8 -60 18 -60 1 0 2 18 2 40 0 43 -10 53 -20 20z"/>
<path d="M3088 2383 c12 -2 30 -2 40 0 9 3 -1 5 -23 4 -22 0 -30 -2 -17 -4z"/>
<path d="M2015 2440 c-3 -5 -1 -10 4 -10 6 0 11 5 11 10 0 6 -2 10 -4 10 -3 0
-8 -4 -11 -10z"/>
<path d="M1976 2301 c-4 -7 -5 -15 -2 -18 9 -9 19 4 14 18 -4 11 -6 11 -12 0z"/>
<path d="M1987 2208 c-2 -7 2 -19 9 -26 12 -10 14 -10 14 3 0 8 0 18 1 22 1
14 -18 14 -24 1z"/>
<path d="M1770 2401 c0 -12 6 -21 16 -21 9 0 14 7 12 17 -5 25 -28 28 -28 4z"/>
<path d="M1781 2334 c0 -11 3 -14 6 -6 3 7 2 16 -1 19 -3 4 -6 -2 -5 -13z"/>
<path d="M1275 2299 c-11 -17 0 -20 21 -4 17 13 17 14 2 15 -9 0 -20 -5 -23
-11z"/>
<path d="M3118 2123 c12 -2 30 -2 40 0 9 3 -1 5 -23 4 -22 0 -30 -2 -17 -4z"/>
<path d="M3308 2123 c7 -3 16 -2 19 1 4 3 -2 6 -13 5 -11 0 -14 -3 -6 -6z"/>
<path d="M2415 2150 c-9 -15 3 -30 25 -30 18 0 34 23 23 34 -10 10 -41 7 -48
-4z"/>
<path d="M1995 1859 c-10 -15 3 -25 16 -12 7 7 7 13 1 17 -6 3 -14 1 -17 -5z"/>
<path d="M2040 1474 c0 -9 7 -14 17 -12 25 5 28 28 4 28 -12 0 -21 -6 -21 -16z"/>
<path d="M1778 1693 c7 -3 16 -2 19 1 4 3 -2 6 -13 5 -11 0 -14 -3 -6 -6z"/>
<path d="M2548 993 c7 -3 16 -2 19 1 4 3 -2 6 -13 5 -11 0 -14 -3 -6 -6z"/>
<path d="M2485 970 c40 -18 40 -19 11 -19 -22 -1 -27 -4 -19 -12 9 -9 20 -9
44 0 17 6 46 11 64 11 17 0 35 3 39 7 8 9 -103 32 -149 32 -30 0 -30 -1 10
-19z"/>
<path d="M1778 798 c60 -7 87 -7 95 1 8 8 -14 11 -83 10 l-95 -2 83 -9z"/>
<path d="M2745 840 c-3 -5 1 -10 9 -10 9 0 16 5 16 10 0 6 -4 10 -9 10 -6 0
-13 -4 -16 -10z"/>
<path d="M2678 833 c6 -2 18 -2 25 0 6 3 1 5 -13 5 -14 0 -19 -2 -12 -5z"/>
<path d="M1197 623 c18 -2 50 -2 70 0 21 2 7 4 -32 4 -38 0 -55 -2 -38 -4z"/>
<path d="M2353 613 c9 -2 23 -2 30 0 6 3 -1 5 -18 5 -16 0 -22 -2 -12 -5z"/>
<path d="M2413 613 c9 -2 23 -2 30 0 6 3 -1 5 -18 5 -16 0 -22 -2 -12 -5z"/>
<path d="M2718 4803 c23 -2 59 -2 80 0 20 2 1 4 -43 4 -44 0 -61 -2 -37 -4z"/>
<path d="M2953 4803 c31 -2 83 -2 115 0 31 2 5 3 -58 3 -63 0 -89 -1 -57 -3z"/>
<path d="M3158 4803 c7 -3 16 -2 19 1 4 3 -2 6 -13 5 -11 0 -14 -3 -6 -6z"/>
<path d="M3328 4803 c6 -2 18 -2 25 0 6 3 1 5 -13 5 -14 0 -19 -2 -12 -5z"/>
<path d="M3393 4803 c9 -2 23 -2 30 0 6 3 -1 5 -18 5 -16 0 -22 -2 -12 -5z"/>
<path d="M3518 4803 c7 -3 16 -2 19 1 4 3 -2 6 -13 5 -11 0 -14 -3 -6 -6z"/>
<path d="M3653 4803 c15 -2 37 -2 50 0 12 2 0 4 -28 4 -27 0 -38 -2 -22 -4z"/>
<path d="M3753 4803 c15 -2 39 -2 55 0 15 2 2 4 -28 4 -30 0 -43 -2 -27 -4z"/>
<path d="M3800 4774 c0 -12 3 -14 13 -6 6 5 21 12 32 15 13 3 9 5 -12 6 -24 1
-33 -3 -33 -15z"/>
<path d="M3828 4433 c6 -2 18 -2 25 0 6 3 1 5 -13 5 -14 0 -19 -2 -12 -5z"/>
<path d="M3877 4300 c3 -47 7 -87 9 -89 7 -8 2 123 -6 149 -4 14 -5 -13 -3
-60z"/>
<path d="M1555 4359 c-4 -6 -5 -12 -2 -15 2 -3 7 2 10 11 7 17 1 20 -8 4z"/>
<path d="M2608 4353 c6 -2 18 -2 25 0 6 3 1 5 -13 5 -14 0 -19 -2 -12 -5z"/>
<path d="M2479 4326 c9 -11 9 -15 -1 -19 -7 -3 -3 -6 10 -6 16 -1 22 5 22 19
0 14 -7 20 -21 20 -17 0 -19 -3 -10 -14z"/>
<path d="M1546 4297 c-10 -37 -7 -79 5 -72 6 4 8 13 5 21 -3 7 -1 16 4 19 12
8 13 42 1 49 -5 3 -11 -4 -15 -17z"/>
<path d="M2495 4250 c3 -5 8 -10 11 -10 2 0 4 5 4 10 0 6 -5 10 -11 10 -5 0
-7 -4 -4 -10z"/>
<path d="M3910 4239 c0 -11 4 -18 10 -14 5 3 7 12 3 20 -7 21 -13 19 -13 -6z"/>
<path d="M2222 4220 c0 -14 2 -19 5 -12 2 6 2 18 0 25 -3 6 -5 1 -5 -13z"/>
<path d="M2436 4225 c4 -8 1 -15 -5 -15 -6 0 -11 -7 -11 -15 0 -17 9 -19 29
-6 14 9 7 51 -9 51 -5 0 -7 -7 -4 -15z"/>
<path d="M2159 4203 c0 -10 -2 -26 -4 -36 -2 -9 0 -29 5 -45 7 -21 8 -14 9 36
1 34 -1 62 -4 62 -3 0 -5 -8 -6 -17z"/>
<path d="M2488 4193 c7 -3 16 -2 19 1 4 3 -2 6 -13 5 -11 0 -14 -3 -6 -6z"/>
<path d="M1525 4135 c-4 -32 -9 -64 -12 -72 -3 -7 -1 -13 4 -13 13 0 33 111
23 129 -4 8 -10 -9 -15 -44z"/>
<path d="M2220 4179 c0 -5 5 -7 10 -4 6 3 10 8 10 11 0 2 -4 4 -10 4 -5 0 -10
-5 -10 -11z"/>
<path d="M2440 4150 c0 -11 5 -20 10 -20 6 0 10 9 10 20 0 11 -4 20 -10 20 -5
0 -10 -9 -10 -20z"/>
<path d="M2225 4138 c-2 -7 0 -29 4 -48 l9 -35 1 48 c1 45 -5 60 -14 35z"/>
<path d="M3745 4090 c-3 -5 1 -10 10 -10 9 0 13 5 10 10 -3 6 -8 10 -10 10 -2
0 -7 -4 -10 -10z"/>
<path d="M2234 3955 c0 -55 1 -76 3 -47 2 29 2 74 0 100 -2 26 -3 2 -3 -53z"/>
<path d="M1532 3990 c0 -19 2 -27 5 -17 2 9 2 25 0 35 -3 9 -5 1 -5 -18z"/>
<path d="M1506 3979 c-10 -36 -4 -71 9 -55 6 6 8 27 4 46 -5 34 -6 35 -13 9z"/>
<path d="M1870 3830 c0 -18 5 -30 13 -30 9 0 12 10 9 30 -2 17 -8 30 -13 30
-5 0 -9 -13 -9 -30z"/>
<path d="M1886 3787 c-14 -10 -17 -23 -14 -55 2 -23 -1 -44 -7 -46 -6 -3 -4
-9 5 -15 12 -8 5 -11 -27 -11 -40 0 -55 11 -34 24 12 8 13 94 1 101 -6 4 -10
-14 -10 -44 0 -30 -5 -53 -13 -58 -21 -13 -15 -77 8 -85 11 -4 -33 -6 -97 -3
-110 4 -118 3 -118 -15 0 -10 -3 -26 -7 -36 -4 -12 -3 -15 6 -10 14 9 71 -2
71 -14 0 -4 -18 -10 -40 -14 -38 -6 -40 -8 -34 -34 4 -15 8 -29 10 -31 2 -2
78 -3 170 -2 133 2 165 0 162 -11 -3 -8 -30 -15 -79 -18 -85 -6 -71 -20 19
-20 65 0 86 9 80 36 -2 11 6 29 18 42 17 19 29 23 65 19 l44 -4 -48 -1 c-58
-2 -54 -22 4 -22 49 0 49 -23 1 -28 -31 -3 -32 -5 -32 -47 0 -29 -5 -45 -15
-49 -13 -5 -15 -20 -9 -98 8 -107 29 -149 73 -147 l26 1 -24 7 c-22 6 -23 8
-8 23 18 18 23 33 8 23 -5 -3 -12 -1 -16 4 -3 6 -13 7 -23 4 -12 -4 -14 -3 -7
5 6 6 36 12 68 13 32 1 60 6 63 11 3 4 13 8 22 8 15 0 15 -2 2 -10 -8 -5 -11
-10 -7 -10 5 0 24 12 43 26 19 15 37 24 41 20 3 -3 1 -6 -6 -6 -7 0 -11 -5 -9
-12 3 -7 40 -12 111 -13 120 -1 143 -11 111 -47 l-19 -22 27 20 c30 21 34 29
18 39 -5 3 -10 31 -10 61 0 30 5 54 10 54 6 0 10 27 10 60 l0 60 -90 0 c-71 0
-92 3 -96 15 -5 11 -22 15 -63 15 -63 0 -79 11 -98 70 -9 29 -10 20 -5 -52 l5
-88 -27 0 -26 0 0 100 c0 96 1 100 19 90 36 -19 36 -22 15 98 -4 20 -23 51
-45 74 -35 37 -40 40 -78 33 -33 -5 -41 -4 -41 8 0 8 -7 18 -16 21 -20 8 -17
8 -38 -7z m140 -39 c10 -16 12 -58 2 -58 -4 0 -12 15 -17 33 -5 17 -10 24 -10
13 -1 -11 -6 -16 -14 -13 -8 3 -20 -3 -27 -14 -16 -21 -30 -8 -23 22 4 16 17
21 70 28 6 0 15 -4 19 -11z m44 -58 c0 -5 -5 -10 -11 -10 -5 0 -7 5 -4 10 3 6
8 10 11 10 2 0 4 -4 4 -10z m-79 -22 c14 -16 19 -37 19 -85 0 -35 4 -63 10
-63 6 0 10 10 10 23 1 22 1 22 15 -3 8 -14 14 -27 15 -30 0 -3 -32 -5 -70 -5
-50 0 -69 3 -66 12 3 6 0 14 -7 16 -7 2 -9 8 -5 12 5 5 16 1 26 -8 17 -15 17
-13 14 55 -3 56 -1 69 9 66 8 -3 17 -18 20 -34 5 -24 7 -26 14 -11 5 13 1 28
-14 48 -25 34 -17 39 10 7z m77 -56 c-8 -9 -6 -12 8 -10 25 4 33 -16 9 -20
-23 -5 -35 15 -34 58 l0 35 14 -25 c9 -18 10 -29 3 -38z m-189 22 c2 -2 -15
-4 -38 -4 -25 0 -40 4 -36 10 5 8 63 3 74 -6z m29 -42 c-16 -2 -28 -8 -28 -15
0 -8 -3 -8 -12 1 -7 7 -20 12 -30 12 -10 0 -18 3 -18 8 0 4 26 5 57 2 33 -2
46 -6 31 -8z m-288 -22 c0 -5 -4 -10 -10 -10 -5 0 -10 5 -10 10 0 6 5 10 10
10 6 0 10 -4 10 -10z m300 0 c0 -5 -4 -10 -10 -10 -5 0 -10 5 -10 10 0 6 5 10
10 10 6 0 10 -4 10 -10z m-110 -10 c0 -5 -7 -10 -16 -10 -8 0 -12 5 -9 10 3 6
10 10 16 10 5 0 9 -4 9 -10z m75 -9 c-3 -5 -1 -12 5 -16 5 -3 10 -10 10 -15 0
-29 -232 -19 -238 10 -2 13 12 15 89 13 50 -1 101 2 112 7 29 11 29 11 22 1z
m48 -68 c-7 -2 -21 -2 -30 0 -10 3 -4 5 12 5 17 0 24 -2 18 -5z m-43 -24 c0
-5 -52 -9 -115 -9 -130 0 -159 17 -37 22 95 4 152 -1 152 -13z m320 -49 c0 -5
-10 -10 -22 -9 -22 0 -22 1 -3 9 11 5 21 9 23 9 1 1 2 -3 2 -9z m43 3 c-7 -2
-19 -2 -25 0 -7 3 -2 5 12 5 14 0 19 -2 13 -5z m-203 -63 c0 -5 -2 -10 -4 -10
-3 0 -8 5 -11 10 -3 6 -1 10 4 10 6 0 11 -4 11 -10z m153 4 c3 -3 -3 -14 -13
-24 -18 -18 -20 -18 -57 1 -34 18 -35 20 -10 16 15 -2 30 0 33 4 6 10 38 12
47 3z m232 -4 c4 -6 -22 -10 -72 -9 -53 0 -72 3 -58 9 28 12 123 12 130 0z
m-178 -11 c-9 -6 -15 -14 -12 -20 4 -5 1 -9 -5 -9 -7 0 -10 6 -7 14 3 8 1 17
-6 20 -7 2 2 5 18 5 25 0 27 -1 12 -10z m-127 -40 c0 -5 6 -7 13 -3 6 4 3 -2
-7 -14 -11 -12 -23 -22 -27 -22 -7 0 -7 24 0 48 3 7 21 0 21 -9z m46 -43 c-3
-13 -13 -27 -23 -30 -16 -6 -16 -6 0 12 9 10 17 29 18 43 0 13 3 18 6 11 3 -7
2 -23 -1 -36z m219 -17 c-6 -32 -13 -35 -35 -11 -19 21 -19 21 3 25 12 2 25 5
29 6 4 0 5 -9 3 -20z m-320 -9 c3 -6 -1 -13 -10 -16 -19 -8 -30 0 -20 15 8 14
22 14 30 1z"/>
<path d="M2155 3330 c3 -5 8 -10 11 -10 2 0 4 5 4 10 0 6 -5 10 -11 10 -5 0
-7 -4 -4 -10z"/>
<path d="M1482 3765 c0 -16 2 -22 5 -12 2 9 2 23 0 30 -3 6 -5 -1 -5 -18z"/>
<path d="M2173 3670 c0 -41 2 -58 4 -37 2 20 2 54 0 75 -2 20 -4 3 -4 -38z"/>
<path d="M2242 3715 c0 -16 2 -22 5 -12 2 9 2 23 0 30 -3 6 -5 -1 -5 -18z"/>
<path d="M1473 3675 c0 -22 2 -30 4 -17 2 12 2 30 0 40 -3 9 -5 -1 -4 -23z"/>
<path d="M1501 3694 c0 -11 3 -14 6 -6 3 7 2 16 -1 19 -3 4 -6 -2 -5 -13z"/>
<path d="M2243 3610 c0 -41 2 -58 4 -37 2 20 2 54 0 75 -2 20 -4 3 -4 -38z"/>
<path d="M1486 3578 c-4 -46 -10 -91 -13 -102 -3 -11 -1 -16 5 -12 10 6 28
183 19 192 -2 3 -7 -33 -11 -78z"/>
<path d="M1457 3588 c-18 -132 -19 -143 -9 -133 5 6 13 47 17 93 7 86 1 112
-8 40z"/>
<path d="M2252 3510 c0 -14 2 -19 5 -12 2 6 2 18 0 25 -3 6 -5 1 -5 -13z"/>
<path d="M2508 3513 c7 -3 16 -2 19 1 4 3 -2 6 -13 5 -11 0 -14 -3 -6 -6z"/>
<path d="M3990 3490 c0 -16 4 -30 8 -30 5 0 7 14 4 30 -2 17 -6 30 -8 30 -2 0
-4 -13 -4 -30z"/>
<path d="M2535 3495 c-38 -13 -39 -13 -10 -14 39 -1 75 9 75 20 0 12 -16 10
-65 -6z"/>
<path d="M2173 3463 c9 -2 23 -2 30 0 6 3 -1 5 -18 5 -16 0 -22 -2 -12 -5z"/>
<path d="M1148 3443 c6 -2 18 -2 25 0 6 3 1 5 -13 5 -14 0 -19 -2 -12 -5z"/>
<path d="M1208 3443 c6 -2 18 -2 25 0 6 3 1 5 -13 5 -14 0 -19 -2 -12 -5z"/>
<path d="M1303 3443 c26 -2 67 -2 90 0 23 2 2 3 -48 3 -49 0 -68 -1 -42 -3z"/>
<path d="M1523 3443 c9 -2 25 -2 35 0 9 3 1 5 -18 5 -19 0 -27 -2 -17 -5z"/>
<path d="M2540 3439 c0 -7 -10 -9 -25 -7 -19 4 -25 1 -25 -13 0 -20 15 -25 25
-9 3 6 17 10 30 10 18 0 23 4 19 15 -7 17 -24 20 -24 4z"/>
<path d="M4000 3413 c0 -61 13 -153 22 -153 5 0 7 15 4 33 -3 17 -8 57 -11 86
-6 61 -15 81 -15 34z"/>
<path d="M1099 3429 c0 -2 -3 -19 -5 -36 l-5 -33 77 0 c67 0 75 2 64 15 -10
13 -9 15 9 15 12 0 20 -4 17 -9 -3 -5 5 -11 19 -13 37 -7 175 3 175 13 0 5 8
9 18 9 14 0 15 -2 2 -10 -11 -7 2 -10 43 -10 40 0 56 3 51 11 -4 8 0 9 15 4
15 -5 21 -2 21 9 0 25 18 19 22 -6 3 -23 5 -23 108 -17 l105 5 -81 2 c-53 1
-85 7 -93 15 -8 11 -5 13 19 9 17 -2 30 0 30 5 0 6 -37 13 -82 16 -65 5 -85 4
-98 -8 -21 -19 -31 -19 -24 -1 4 10 0 13 -13 11 -10 -1 -17 -8 -15 -14 2 -9
-3 -9 -18 -1 -11 6 -39 8 -64 5 -24 -4 -60 -2 -79 3 -26 7 -42 6 -62 -4 -32
-16 -38 -17 -31 -5 3 5 -3 11 -15 14 -17 5 -20 1 -17 -21 2 -19 -2 -27 -12
-27 -9 0 -15 9 -14 23 1 15 -4 22 -16 22 -10 0 -25 3 -34 6 -9 3 -16 5 -17 3z
m486 -19 c-3 -5 -12 -10 -18 -10 -7 0 -6 4 3 10 19 12 23 12 15 0z m-445 -14
c0 -8 -7 -16 -15 -20 -12 -4 -13 -2 -2 14 14 24 17 25 17 6z"/>
<path d="M2080 3420 c0 -5 7 -10 15 -10 8 0 15 5 15 10 0 6 -7 10 -15 10 -8 0
-15 -4 -15 -10z"/>
<path d="M1950 3391 c0 -20 13 -35 23 -25 7 8 -4 44 -14 44 -5 0 -9 -9 -9 -19z"/>
<path d="M2516 3392 c-7 -12 6 -182 15 -182 4 0 6 16 5 35 -4 42 8 44 74 13
67 -31 70 -31 70 10 0 34 -4 39 -47 62 -26 14 -62 35 -80 47 -18 12 -34 19
-37 15z"/>
<path d="M1365 3340 c-225 -5 -252 -10 -130 -25 69 -8 150 -32 162 -47 7 -9 6
-47 -3 -118 -21 -160 -21 -160 -55 -160 -29 0 -29 -1 -29 -55 0 -30 -4 -55 -9
-55 -18 0 -23 -54 -7 -66 24 -17 21 -54 -4 -54 -11 0 -20 5 -20 10 0 6 -11 10
-25 10 -19 0 -26 -7 -34 -37 -19 -66 -8 -101 20 -67 10 12 10 20 1 34 -14 24
-6 50 17 50 13 0 14 -2 2 -9 -12 -8 -13 -14 -3 -36 7 -15 10 -30 8 -33 -2 -4
23 -8 56 -9 33 0 56 2 50 6 -6 3 0 14 14 24 23 17 24 17 24 -2 0 -10 -6 -22
-12 -24 -7 -3 41 -6 107 -6 74 -1 115 -5 110 -10 -6 -6 -30 -11 -55 -14 -34
-3 -27 -4 25 -5 l70 -2 -8 113 c-4 61 -6 133 -4 159 3 34 0 49 -11 53 -23 9
-32 6 -32 -11 0 -8 -4 -13 -9 -9 -5 3 -13 0 -17 -6 -4 -7 -3 -9 4 -5 18 11 22
-10 4 -25 -11 -9 -27 -12 -47 -8 -16 4 -22 7 -12 8 9 0 17 6 17 13 0 6 8 20
18 31 17 19 16 19 -25 12 -25 -4 -49 -2 -60 4 -17 10 -17 10 0 11 9 0 17 5 17
11 0 6 -8 8 -19 4 -11 -3 -22 -1 -26 5 -4 6 4 10 19 10 34 0 55 9 52 23 -1 7
-1 9 1 5 3 -5 41 -8 86 -8 53 0 77 4 68 9 -11 7 -6 11 20 14 19 2 -14 5 -72 5
l-106 2 -1 35 c-1 35 -1 35 41 36 23 1 74 0 113 -1 40 -1 74 2 77 7 7 10 147
10 165 0 6 -5 17 -5 22 -2 6 3 11 0 12 -7 1 -7 4 14 7 47 8 84 3 115 -23 125
-20 9 -20 9 3 9 20 1 22 3 10 17 -11 13 -35 15 -148 13 -75 -2 -145 -1 -156 1
-11 3 -128 3 -260 0z m288 -37 c-7 -2 -19 -2 -25 0 -7 3 -2 5 12 5 14 0 19 -2
13 -5z m54 -8 c0 -8 -4 -15 -8 -15 -4 0 -9 7 -13 15 -3 9 0 15 8 15 7 0 13 -7
13 -15z m92 -9 c11 -8 15 -8 18 2 3 6 10 12 16 12 6 0 0 -11 -14 -26 -19 -20
-25 -22 -34 -11 -5 7 -18 16 -27 20 -10 3 -18 11 -18 16 0 11 39 3 59 -13z
m-169 -11 c0 -8 -2 -15 -4 -15 -2 0 -6 7 -10 15 -3 8 -1 15 4 15 6 0 10 -7 10
-15z m-165 -25 c16 -16 25 -30 21 -30 -4 0 -21 14 -38 30 -16 17 -26 30 -21
30 5 0 22 -13 38 -30z m60 -45 c8 -32 9 -57 4 -61 -5 -3 -9 11 -9 30 0 20 -4
36 -10 36 -5 0 -10 -7 -10 -15 0 -8 -4 -15 -9 -15 -5 0 -11 -31 -13 -69 -4
-72 -11 -92 -28 -75 -15 15 0 174 16 174 8 0 14 -6 15 -12 0 -7 4 -2 10 10 5
13 7 28 3 33 -6 10 5 33 13 25 3 -3 11 -30 18 -61z m-100 -172 c-3 -24 -11
-43 -16 -43 -6 0 -8 8 -5 18 2 9 8 44 12 77 7 50 9 54 12 25 2 -19 1 -54 -3
-77z m-15 -63 c0 -5 -7 -10 -15 -10 -8 0 -15 5 -15 10 0 6 7 10 15 10 8 0 15
-4 15 -10z m-50 -50 c0 -30 -4 -40 -16 -40 -11 0 -14 5 -10 16 3 9 6 27 6 40
0 13 5 24 10 24 6 0 10 -18 10 -40z m50 -57 c-9 -42 -16 -53 -31 -53 -24 0
-25 15 -1 30 12 8 13 13 5 16 -15 7 -17 44 -3 44 6 0 10 6 10 13 0 7 6 19 13
26 18 19 22 -13 7 -76z m60 47 c0 -28 -4 -40 -14 -40 -21 0 -27 14 -20 49 10
46 34 40 34 -9z m137 -12 c-3 -8 -6 -5 -6 6 -1 11 2 17 5 13 3 -3 4 -12 1 -19z
m-91 -16 c12 -8 14 -92 3 -92 -4 0 -6 -9 -4 -20 2 -11 -1 -22 -7 -26 -6 -4 -5
-10 3 -15 11 -7 10 -9 -3 -9 -19 0 -25 41 -20 123 4 47 8 53 28 39z m-46 -46
c0 -19 -27 -28 -33 -11 -7 15 1 25 20 25 7 0 13 -6 13 -14z m137 -58 c-2 -13
-4 -5 -4 17 -1 22 1 32 4 23 2 -10 2 -28 0 -40z m-211 6 c18 -15 18 -15 -6
-10 -14 3 -31 6 -38 6 -7 0 -10 5 -7 10 9 14 28 12 51 -6z m-16 -34 c0 -13 -7
-20 -20 -20 -23 0 -26 10 -8 28 18 18 28 15 28 -8z m-70 -35 c0 -28 -15 -34
-24 -9 -10 25 -7 34 9 34 9 0 15 -9 15 -25z"/>
<path d="M2477 3263 c-12 -12 -7 -61 6 -66 10 -4 14 6 15 34 2 37 -6 48 -21
32z"/>
<path d="M2597 3224 c-8 -8 1 -24 14 -24 5 0 9 7 9 15 0 15 -12 20 -23 9z"/>
<path d="M2110 3141 c0 -10 19 -25 25 -20 1 2 -3 10 -11 17 -8 7 -14 8 -14 3z"/>
<path d="M2193 3143 c-7 -2 -13 -14 -12 -26 0 -22 0 -22 9 1 12 27 46 29 55 2
8 -25 23 -26 21 -2 -2 28 -36 40 -73 25z"/>
<path d="M2460 3114 c0 -8 5 -12 10 -9 6 3 10 10 10 16 0 5 -4 9 -10 9 -5 0
-10 -7 -10 -16z"/>
<path d="M1960 3110 c0 -5 4 -10 9 -10 6 0 13 5 16 10 3 6 -1 10 -9 10 -9 0
-16 -4 -16 -10z"/>
<path d="M2210 3110 c0 -5 5 -10 10 -10 6 0 10 5 10 10 0 6 -4 10 -10 10 -5 0
-10 -4 -10 -10z"/>
<path d="M3303 3113 c20 -2 54 -2 75 0 20 2 3 4 -38 4 -41 0 -58 -2 -37 -4z"/>
<path d="M4068 3113 c6 -2 18 -2 25 0 6 3 1 5 -13 5 -14 0 -19 -2 -12 -5z"/>
<path d="M1930 3090 c0 -5 5 -10 10 -10 6 0 10 5 10 10 0 6 -4 10 -10 10 -5 0
-10 -4 -10 -10z"/>
<path d="M2650 3090 c0 -5 7 -10 15 -10 8 0 15 5 15 10 0 6 -7 10 -15 10 -8 0
-15 -4 -15 -10z"/>
<path d="M3345 3037 c-6 -7 -15 -19 -20 -27 -6 -11 -3 -10 11 2 12 11 29 15
44 12 24 -5 24 -5 6 10 -23 19 -28 19 -41 3z"/>
<path d="M2633 2989 c-2 -21 1 -28 10 -23 9 5 9 3 0 -7 -18 -18 -16 -26 7 -32
13 -3 20 0 20 9 0 8 7 17 15 20 27 11 17 32 -11 26 -17 -3 -25 -1 -21 5 4 6 1
15 -6 21 -9 8 -13 3 -14 -19z"/>
<path d="M3245 3000 c3 -5 11 -10 16 -10 6 0 7 5 4 10 -3 6 -11 10 -16 10 -6
0 -7 -4 -4 -10z"/>
<path d="M2652 2890 c0 -14 2 -19 5 -12 2 6 2 18 0 25 -3 6 -5 1 -5 -13z"/>
<path d="M2650 2834 c0 -8 5 -12 10 -9 6 4 8 11 5 16 -9 14 -15 11 -15 -7z"/>
<path d="M4058 2824 c0 -16 -1 -36 0 -44 0 -8 -4 -22 -9 -32 -7 -12 -6 -18 1
-18 15 0 30 45 26 81 -5 41 -16 49 -18 13z"/>
<path d="M2640 2780 c20 -13 33 -13 25 0 -3 6 -14 10 -23 10 -15 0 -15 -2 -2
-10z"/>
<path d="M1368 2643 c17 -2 47 -2 65 0 17 2 3 4 -33 4 -36 0 -50 -2 -32 -4z"/>
<path d="M1768 2643 c7 -3 16 -2 19 1 4 3 -2 6 -13 5 -11 0 -14 -3 -6 -6z"/>
<path d="M1375 2620 c-4 -6 14 -10 47 -10 38 0 49 3 38 10 -20 13 -77 13 -85
0z"/>
<path d="M1525 2609 c-4 -6 -5 -13 -2 -16 7 -7 27 6 27 18 0 12 -17 12 -25 -2z"/>
<path d="M1577 2614 c-11 -11 3 -24 18 -18 8 4 12 10 9 15 -6 11 -18 12 -27 3z"/>
<path d="M1765 2590 c3 -5 8 -10 11 -10 2 0 4 5 4 10 0 6 -5 10 -11 10 -5 0
-7 -4 -4 -10z"/>
<path d="M3597 2570 c3 -12 0 -20 -7 -20 -6 0 -18 -6 -25 -14 -24 -23 4 -36
43 -20 35 15 41 40 15 60 -25 19 -32 17 -26 -6z m18 -29 c-3 -6 -11 -11 -17
-11 -6 0 -6 6 2 15 14 17 26 13 15 -4z"/>
<path d="M3568 2483 c6 -2 18 -2 25 0 6 3 1 5 -13 5 -14 0 -19 -2 -12 -5z"/>
<path d="M1531 2414 c0 -11 3 -14 6 -6 3 7 2 16 -1 19 -3 4 -6 -2 -5 -13z"/>
<path d="M1550 2385 c0 -8 5 -15 10 -15 6 0 10 7 10 15 0 8 -4 15 -10 15 -5 0
-10 -7 -10 -15z"/>
<path d="M3720 2220 c0 -5 5 -10 11 -10 5 0 7 5 4 10 -3 6 -8 10 -11 10 -2 0
-4 -4 -4 -10z"/>
<path d="M1273 2115 c0 -10 10 -15 29 -15 18 0 27 4 23 11 -4 6 -13 8 -21 5
-8 -3 -14 -1 -14 4 0 6 -4 10 -8 10 -5 0 -9 -7 -9 -15z"/>
<path d="M1348 2123 c7 -3 16 -2 19 1 4 3 -2 6 -13 5 -11 0 -14 -3 -6 -6z"/>
<path d="M1410 2110 c-12 -8 -11 -10 8 -10 12 0 22 5 22 10 0 13 -11 13 -30 0z"/>
<path d="M1244 1843 c3 -27 7 -69 8 -94 l2 -46 32 13 c19 8 44 14 56 15 22 0
22 1 3 10 -15 7 -11 8 17 4 20 -3 39 -1 43 5 4 6 -14 10 -49 10 -34 0 -56 -5
-59 -12 -3 -7 -6 22 -6 65 -1 76 -1 77 -27 77 -25 0 -26 -2 -20 -47z"/>
<path d="M1155 1830 c3 -5 8 -10 11 -10 2 0 4 5 4 10 0 6 -5 10 -11 10 -5 0
-7 -4 -4 -10z"/>
<path d="M3675 1760 c-3 -5 -2 -10 4 -10 5 0 13 5 16 10 3 6 2 10 -4 10 -5 0
-13 -4 -16 -10z"/>
<path d="M1540 1704 c0 -8 5 -12 10 -9 6 4 8 11 5 16 -9 14 -15 11 -15 -7z"/>
<path d="M1590 1704 c0 -9 5 -14 12 -12 18 6 21 28 4 28 -9 0 -16 -7 -16 -16z"/>
<path d="M1412 1538 c6 -18 28 -21 28 -4 0 9 -7 16 -16 16 -9 0 -14 -5 -12
-12z"/>
<path d="M1177 1473 c-12 -22 -33 -552 -21 -540 5 4 9 29 10 55 1 26 5 129 8
228 3 100 9 200 12 223 5 38 1 52 -9 34z"/>
<path d="M3095 980 c-4 -6 25 -10 82 -9 62 1 79 4 58 9 -45 11 -133 11 -140 0z"/>
<path d="M3560 979 c0 -6 -8 -8 -19 -4 -11 3 -22 1 -26 -5 -7 -12 89 -12 205
0 l75 8 -87 -2 c-49 -1 -88 1 -88 6 0 4 -13 8 -30 8 -16 0 -30 -5 -30 -11z"/>
<path d="M3128 953 c7 -3 16 -2 19 1 4 3 -2 6 -13 5 -11 0 -14 -3 -6 -6z"/>
<path d="M3848 943 c17 -2 32 -8 32 -14 0 -5 17 -8 38 -8 27 1 30 3 12 6 -14
3 -29 9 -34 14 -6 5 -26 8 -45 7 l-36 -1 33 -4z"/>
<path d="M3828 913 c7 -3 16 -2 19 1 4 3 -2 6 -13 5 -11 0 -14 -3 -6 -6z"/>
<path d="M3565 870 c4 -6 11 -8 16 -5 14 9 11 15 -7 15 -8 0 -12 -5 -9 -10z"/>
</g>
</svg>
